<svg width="16" height="16" viewBox="0 0 16 16" fill="none" xmlns="http://www.w3.org/2000/svg">
<path d="M7.99933 4.14746C6.97736 4.14746 5.99725 4.55344 5.27461 5.27608C4.55197 5.99872 4.146 6.97883 4.146 8.00079C4.146 9.02276 4.55197 10.0029 5.27461 10.7255C5.99725 11.4482 6.97736 11.8541 7.99933 11.8541C9.0213 11.8541 10.0014 11.4482 10.724 10.7255C11.4467 10.0029 11.8527 9.02276 11.8527 8.00079C11.8527 6.97883 11.4467 5.99872 10.724 5.27608C10.0014 4.55344 9.0213 4.14746 7.99933 4.14746ZM7.99933 10.5033C7.3354 10.5033 6.69867 10.2396 6.22921 9.77008C5.75974 9.30062 5.496 8.66389 5.496 7.99996C5.496 7.33604 5.75974 6.6993 6.22921 6.22984C6.69867 5.76037 7.3354 5.49663 7.99933 5.49663C8.66325 5.49663 9.29999 5.76037 9.76945 6.22984C10.2389 6.6993 10.5027 7.33604 10.5027 7.99996C10.5027 8.66389 10.2389 9.30062 9.76945 9.77008C9.29999 10.2396 8.66325 10.5033 7.99933 10.5033Z" fill="#ECB403"/>
<path d="M12.0048 4.90409C12.5009 4.90409 12.9031 4.50189 12.9031 4.00575C12.9031 3.50962 12.5009 3.10742 12.0048 3.10742C11.5086 3.10742 11.1064 3.50962 11.1064 4.00575C11.1064 4.50189 11.5086 4.90409 12.0048 4.90409Z" fill="#ECB403"/>
<path d="M15.1106 3.09273C14.9177 2.59454 14.6229 2.14213 14.2451 1.76444C13.8672 1.38676 13.4147 1.09212 12.9165 0.899395C12.3334 0.680525 11.7174 0.562179 11.0948 0.549394C10.2923 0.514394 10.0381 0.504395 8.00313 0.504395C5.96813 0.504395 5.7073 0.504394 4.91146 0.549394C4.28929 0.561525 3.67376 0.679896 3.09146 0.899395C2.59308 1.0919 2.14044 1.38645 1.76258 1.76417C1.38472 2.14188 1.08999 2.59441 0.897298 3.09273C0.678385 3.67574 0.56031 4.29176 0.548132 4.91439C0.512298 5.71606 0.501465 5.97023 0.501465 8.00606C0.501465 10.0411 0.501465 10.3002 0.548132 11.0977C0.560632 11.7211 0.678131 12.3361 0.897298 12.9202C1.09053 13.4184 1.38554 13.8707 1.76349 14.2484C2.14144 14.626 2.59402 14.9207 3.0923 15.1136C3.67349 15.3412 4.28927 15.468 4.91313 15.4886C5.71563 15.5236 5.9698 15.5344 8.0048 15.5344C10.0398 15.5344 10.3006 15.5344 11.0965 15.4886C11.719 15.4759 12.335 15.3578 12.9181 15.1394C13.4163 14.9462 13.8687 14.6513 14.2464 14.2735C14.6242 13.8957 14.9191 13.4434 15.1123 12.9452C15.3315 12.3619 15.449 11.7469 15.4615 11.1236C15.4973 10.3219 15.5081 10.0677 15.5081 8.03189C15.5081 5.99606 15.5081 5.73773 15.4615 4.94023C15.4518 4.30879 15.3331 3.68377 15.1106 3.09273ZM14.0956 11.0361C14.0903 11.5163 14.0026 11.9921 13.8365 12.4427C13.7113 12.7668 13.5197 13.0611 13.274 13.3066C13.0283 13.5522 12.7339 13.7436 12.4098 13.8686C11.9642 14.0339 11.4934 14.1216 11.0181 14.1277C10.2265 14.1644 10.0031 14.1736 7.97313 14.1736C5.94147 14.1736 5.73396 14.1736 4.9273 14.1277C4.45224 14.1219 3.98174 14.0342 3.53646 13.8686C3.2112 13.7444 2.91563 13.5533 2.66887 13.3077C2.42211 13.0621 2.22966 12.7674 2.10396 12.4427C1.94017 11.9969 1.85256 11.5268 1.8448 11.0519C1.80896 10.2602 1.80063 10.0369 1.80063 8.0069C1.80063 5.97606 1.80063 5.76856 1.8448 4.96106C1.85018 4.48108 1.93784 4.00558 2.10396 3.55523C2.35813 2.89773 2.87896 2.38023 3.53646 2.12856C3.98196 1.96368 4.45232 1.87603 4.9273 1.86939C5.7198 1.83356 5.9423 1.82356 7.97313 1.82356C10.004 1.82356 10.2123 1.82356 11.0181 1.86939C11.4935 1.87511 11.9643 1.96279 12.4098 2.12856C12.7339 2.25379 13.0282 2.4454 13.2739 2.69109C13.5196 2.93678 13.7112 3.23112 13.8365 3.55523C14.0003 4.00102 14.0879 4.47119 14.0956 4.94606C14.1315 5.73856 14.1406 5.96106 14.1406 7.99189C14.1406 10.0219 14.1406 10.2402 14.1048 11.0369H14.0956V11.0361Z" fill="#ECB403"/>
</svg>
