<svg width="25" height="24" viewBox="0 0 25 24" fill="none" xmlns="http://www.w3.org/2000/svg">
<circle cx="12.9004" cy="12" r="12" fill="#ECB403"/>
<path fill-rule="evenodd" clip-rule="evenodd" d="M11.187 9.98047H13.663V11.2138C14.0197 10.5045 14.9344 9.86714 16.3084 9.86714C18.9424 9.86714 19.5677 11.2791 19.5677 13.8698V18.6678H16.901V14.4598C16.901 12.9845 16.5444 12.1525 15.6364 12.1525C14.377 12.1525 13.8537 13.0491 13.8537 14.4591V18.6678H11.187V9.98047ZM6.61437 18.5545H9.28104V9.86714H6.61437V18.5545ZM9.66304 7.03447C9.66314 7.25799 9.61881 7.4793 9.53263 7.68553C9.44645 7.89177 9.32014 8.07881 9.16104 8.23581C8.83864 8.55622 8.40225 8.73557 7.94771 8.73447C7.49397 8.73417 7.05858 8.55527 6.73571 8.23647C6.57718 8.07895 6.4513 7.89169 6.36527 7.68543C6.27924 7.47917 6.23476 7.25796 6.23438 7.03447C6.23438 6.58314 6.41437 6.15114 6.73637 5.83247C7.05897 5.51324 7.49453 5.33427 7.94837 5.33447C8.40304 5.33447 8.83904 5.51381 9.16104 5.83247C9.48237 6.15114 9.66304 6.58314 9.66304 7.03447Z" fill="#151517"/>
</svg>
