<svg xmlns="http://www.w3.org/2000/svg" viewBox="0 0 865.76 682.89"><path d="M525,468.22c0-77.22,41.46-110.31,79.8-141.81,35.83-28.14,69.35-55.41,69.35-112.54,0-62.21-45.33-102.14-108-102.14-59.08,0-108,36.47-111.67,96.45H390.26c4.35-102.67,85.08-160,175.92-160,96.64,0,174.38,62.16,174.38,165.67,0,81.53-42.54,117.1-82,148.88-34,28.58-65.67,54.11-65.67,105.47V485.8H525Zm-5,86.17h77.9v84.84H520Z" fill="#000000"/><g opacity="0.2"><path d="M525,468.22c0-77.22,41.46-110.31,79.8-141.81,35.83-28.14,69.35-55.41,69.35-112.54,0-62.21-45.33-102.14-108-102.14-59.08,0-108,36.47-111.67,96.45H390.26c4.35-102.67,85.08-160,175.92-160,96.64,0,174.38,62.16,174.38,165.67,0,81.53-42.54,117.1-82,148.88-34,28.58-65.67,54.11-65.67,105.47V485.8H525Zm-5,86.17h77.9v84.84H520Z"/></g><path d="M514.66,468.22c0-77.22,41.46-110.31,79.8-141.81,35.84-28.14,69.35-55.41,69.35-112.54,0-62.21-45.33-102.14-107.95-102.14-59.08,0-108,36.47-111.67,96.45H380c4.34-102.67,85.07-160,175.91-160,96.64,0,174.38,62.16,174.38,165.67,0,81.53-42.53,117.1-82,148.88-34,28.58-65.67,54.11-65.67,105.47V485.8H514.66Zm-5,86.17h77.9v84.84h-77.9Z" fill="#000000"/><polygon points="220.35 577.43 199.47 604.25 199.47 628.21 210.32 622.47 210.32 605.89 262.53 561.66 260.81 560.01 252.88 560.01 220.35 577.43" fill="#c4c5c6"/><rect x="250.24" y="469.18" width="21.8" height="55.16" fill="#d1d3d4"/><path d="M260.31,521h0A15.69,15.69,0,0,1,276,536.73v8.75a0,0,0,0,1,0,0H244.62a0,0,0,0,1,0,0v-8.75A15.69,15.69,0,0,1,260.31,521Z" fill="#e6e7e8"/><polygon points="158.93 617.56 158.74 599.98 244.62 537.22 276 537.22 387.32 601.63 387.32 615.84 378.07 620.79 378.07 608.9 299.45 568.93 331.16 603.62 331.16 623.43 320.93 627.73 320.59 606.59 260.81 560.01 252.88 560.01 168.32 604.94 168.32 633.53 158.93 617.56" fill="#d1d3d4"/><rect x="252.38" y="452.99" width="17.51" height="22.79" fill="#e6e7e8"/><path d="M401.08,576.61l-.13,11.3s-23.74,4.23-25.67-.78C375.28,587.13,376.56,580.47,401.08,576.61Z" fill="#000000"/><g opacity="0.2"><path d="M401.08,576.61l-.13,11.3s-23.74,4.23-25.67-.78C375.28,587.13,376.56,580.47,401.08,576.61Z"/></g><path d="M229.73,150.83H142.09a16.89,16.89,0,0,0-16.87,17.64l2.34,53.25a154.46,154.46,0,0,0,3,24.44c3.5,17,9.89,49.38,13.74,77.6a274.42,274.42,0,0,1-6.13,45.3s-15.91,52,12.55,52c0,0,59.62,7.7,205.19.82l36.49-86.44a2.25,2.25,0,0,0,.16-.85v-17.9a2.29,2.29,0,0,0-2.29-2.29H323.26Z" fill="#d1d3d4"/><path d="M176.89,400.54a10.86,10.86,0,0,1-10.77-12.28l3.53-26.76c10-41.85-9.64-105.19-9.84-105.83-5.05-17.2-5.1-28.12-5.1-28.23V189.5c1.45-31.11-8.84-35.64-9-35.68l.37-.93c.45.18,11.07,4.68,9.58,36.64v37.91c0,.11.06,10.9,5,27.94.2.63,19.94,64.24,9.87,106.31l-3.52,26.7a9.89,9.89,0,0,0,2.38,7.81,10,10,0,0,0,7.45,3.34l168.66-.87v1L177,400.54Z" fill="#e6e7e8"/><path d="M427.44,460.77l12.59,112c-63,4-64.75,14.39-64.75,14.39l-8.55-46.77-32.38,34.18c-31.47,10.79-26.52-69.25-26.52-69.25l45.41-58.46-7.64-47.66-111.07-.9c-53.06-.9-51.14-79.85-51.14-79.85l135.68,7,56.65,4.5c41.83,6.29,38.23,35.52,38.23,35.52C489.49,395.57,427.44,460.77,427.44,460.77Z" fill="#000000"/><g opacity="0.2"><path d="M427.44,461.27a.64.64,0,0,1-.23,0,.5.5,0,0,1-.23-.64c.5-2.18-4.58-45.92-8.13-74.84a.5.5,0,1,1,1-.12c1.5,12.26,9,73.53,8,75.37A.48.48,0,0,1,427.44,461.27Z"/></g><g opacity="0.2"><path d="M366.28,416.3h0a.5.5,0,0,1-.47-.53c.69-11-1.6-15.17-3.64-16.71a4.73,4.73,0,0,0-4.23-.77.54.54,0,0,1-.43,0,.57.57,0,0,1-.24-.36c-2.6-16.92-31.59-17.56-31.89-17.56l-71.48.9c-15.24.42-27.11-3.61-35.3-12-12.78-13.06-12-32.41-12-32.6a.47.47,0,0,1,.52-.48.51.51,0,0,1,.48.53c0,.19-.79,19.11,11.69,31.86,8,8.16,19.62,12.1,34.56,11.68l71.51-.9c1.23,0,29.55.65,32.78,17.87a5.76,5.76,0,0,1,4.58,1c3.27,2.45,4.64,8.37,4.06,17.6A.5.5,0,0,1,366.28,416.3Z"/></g><g opacity="0.2"><path d="M392.29,578.44a.49.49,0,0,1-.49-.4c-6.67-32.91-23.15-146.63-23.31-147.77a.5.5,0,0,1,.42-.57.51.51,0,0,1,.57.42c.16,1.15,16.63,114.84,23.3,147.72a.5.5,0,0,1-.39.59Z"/></g><g opacity="0.2"><path d="M366.73,540.36l-32.38,34.18c-31.47,10.79-26.52-69.25-26.52-69.25l45.41-58.46Z"/></g><path d="M307.83,505.29,290,525.55s5,21.76,21.27,36.47l1.72-2.29S305.87,542.73,307.83,505.29Z" fill="#f1c4b3"/><path d="M311.22,562,308.16,568c-8-2.49-11.65-10.51-11.65-10.51-15.51,6.75-17.19-3.14-17.26-7.3a12.39,12.39,0,0,1,.27-2.64,83.58,83.58,0,0,0,1.9-17.38h0l8.53-4.57C297,550.77,311.22,562,311.22,562Z" fill="#fff"/><path d="M308.16,568c-7.07,16.81-9.55,43-9.55,43,0,14.44-2.28,21.8-4.65,25.55a6.61,6.61,0,0,1-4.73,3,6.68,6.68,0,0,1-4.83-1.26c-12-8.92-14.64-38.58-14.64-38.58-2.1-25.22-.76-65.34-.76-65.34l12.42-4.2h0a83.58,83.58,0,0,1-1.9,17.38,12.39,12.39,0,0,0-.27,2.64c.07,4.16,1.75,14.05,17.26,7.3C296.51,557.44,300.14,565.46,308.16,568Z" fill="#0047FF"/><path d="M289.25,639.59c-25.78,9.83-28.67-76.52-29-96.05a6.71,6.71,0,0,1,3.24-5.86l5.51-3.36s-1.34,40.12.76,65.34c0,0,2.64,29.66,14.64,38.58a6.65,6.65,0,0,0,4.83,1.26Z" fill="#fff"/><path d="M440,572.74s.73,11.6,5,20.22c0,0-27.61.29-44.57,11.79l.42-27.74A335.67,335.67,0,0,1,440,572.74Z" fill="#f1c4b3"/><path d="M452.5,603l-6.86-.55c-10.35-.57-7.18,6.9-7.18,6.9,3.16,24.16-38.25,3.74-38.25,3.74l.29-8.34c17.92-12,44.57-11.79,44.57-11.79,2,5.35,7.26,9.9,7.42,10Z" fill="#fff"/><path d="M504,637.35a124.17,124.17,0,0,1-58.38.61c-29.52-6-48.43-6.3-48.43-6.3l3-18.57s41.41,20.42,38.25-3.74c0,0-3.17-7.47,7.18-6.9l6.86.55,5.15,6.59c8,11.46,27.8,14.62,27.8,14.62,12.38,2.8,17.63,6.46,19.85,9.06A2.53,2.53,0,0,1,504,637.35Z" fill="#0047FF"/><path d="M397.48,641.4l-.29-9.74s18.91.28,48.43,6.3a124.21,124.21,0,0,0,58.39-.61,2.54,2.54,0,0,0,1.3-4.08C526.59,654.09,397.48,641.4,397.48,641.4Z" fill="#fff"/><rect x="231.08" y="338.57" width="10.16" height="92.9" fill="#e6e7e8"/><path d="M153.41,435.36h197.9l-2-13.25-186.83-.2a7.62,7.62,0,0,1-7.61-7.62V339.16H144.75v87.53A8.67,8.67,0,0,0,153.41,435.36Z" fill="#e6e7e8"/><path d="M193.75,435.48h128.5s-29.07,26.43-64.75,22.46C257.5,457.94,217.53,455,193.75,435.48Z" fill="#d1d3d4"/><circle cx="388.64" cy="628.06" r="13.54" fill="#c4c5c6"/><g opacity="0.1"><circle cx="388.64" cy="628.22" r="10.41"/></g><circle cx="333.81" cy="629.71" r="13.54" fill="#c4c5c6"/><g opacity="0.1"><circle cx="333.81" cy="629.88" r="10.41"/></g><circle cx="155.65" cy="629.27" r="13.54" fill="#c4c5c6"/><g opacity="0.1"><circle cx="155.65" cy="629.43" r="10.41"/></g><circle cx="212.57" cy="629.06" r="13.54" fill="#c4c5c6"/><g opacity="0.1"><circle cx="212.57" cy="629.23" r="10.41"/></g><path d="M199.5,479.19l-.33-.94,38.23-13.32a.87.87,0,0,0,.36-1.38l-9-10.34.75-.65,9,10.33a1.86,1.86,0,0,1-.79,3Z" fill="#d1d3d4"/><path d="M175,478.92c4.37-2.22,13.81-5.22,30.12-2.33,0,0-7.63,24.31-30.52,6.42A2.44,2.44,0,0,1,175,478.92Z" fill="#d1d3d4"/><path d="M228.31,158.16s-4-3.44-10.14,4.55c0,0-40.92,23-52.21,42.81,0,0-9.64,18.58-1.88,40l9.41,20.7s2.88,3.42,2.65,9.79a30.36,30.36,0,0,0,1.67,11.35,59.72,59.72,0,0,0,7.8,14.44,14.25,14.25,0,0,1,1.33,2.26c2.27,4.9,12.16,23.8,30.7,26.7a16.93,16.93,0,0,0,11.2-2c5.62-3.28,12.42-11,10.27-29.14l76,26.11s32.69,1.88,36.22-29.87c0,0,4-12-4.94-21.64,0,0,6.59-10.58-.23-20.69,0,0-4.71-4-6.12-14.11,0,0-7.29-34.11-19.05-47.75,0,0-13.17-17.4-46.33-30.34Z" fill="#0047FF"/><rect x="220.03" y="81.1" width="46.95" height="71.12" rx="23.47" transform="translate(-26.5 116.33) rotate(-25.53)" fill="#f1c4b3"/><path d="M226.4,140s4,4.2,3,11.84l-1.14,6.31,24.45,31.33,6.07-40.74L235,137.91l-7.46-.23Z" fill="#f19e9d"/><path d="M234.93,103.09a11.07,11.07,0,0,0,.53-3.62c0-1.58.68-4.67,5.65-6.46,0,0,11.27-4.58,17.38,1a13,13,0,0,0-1.37-15.79,18.51,18.51,0,0,0-9.94-6c-7.54-1.78-23.21-4-31.29,5.19a15,15,0,0,1,5.54-1.92s-4.39,5-3.25,10.89c0,0-13.18-.38-10.89,13,0,0-5.73,4.2-1.34,11.08,0,0-9.74,7.64-.57,17.95a54.24,54.24,0,0,0,23.88,17.39s-1.91-7.07-7.07-8l.48-10.23a32.85,32.85,0,0,1,2.35-11,18,18,0,0,1,5.7-7.26A12.64,12.64,0,0,0,234.93,103.09Z" fill="#51261e"/><path d="M225.57,114.8s.76,6.17,3.16,9.18c0,0,1.66.9,2.26,7.07,0,0,3.16,10.07,14.14,9,0,0,7.07-.9,8.12-7.52,0,0,2.41-7.82,10.68-9.18a7.9,7.9,0,0,1,2.21-.14,9.83,9.83,0,0,1,8.5,13.24c-2.82,7.78-10.94,19.42-34,14.88,0,0-7.22-.41-13.08-13.67s-4.86-10.19-4.86-10.19A34.14,34.14,0,0,1,225.57,114.8Z" fill="#51261e"/><path d="M260.4,85.18c-.14-1-.76-9-3.82-12.8,0,0,4.49.76,5.54,9.55,0,0,.67,7.55-3.63,12A13.09,13.09,0,0,0,260.4,85.18Z" fill="#51261e"/><path d="M239.11,299.59l53.62-16.93s40-9.88,43.75,16.93c0,0,2.9,29.32-29.17,26.11-2.35-.24-75,.39-75,.39S241.08,318.28,239.11,299.59Z" fill="#f1c4b3"/><path d="M178.39,288.88s-4.54,2.73-1.14,9.09c0,0-5.59,1.6.64,8a3.65,3.65,0,0,1,1,3.1,8.56,8.56,0,0,0,4.5,9.37s0,3.87,3.18,5c0,0,7.59,2.91,12.17-2.39a59.84,59.84,0,0,1-11.8-17,19.52,19.52,0,0,0-1.33-2.26S180.05,294,178.39,288.88Z" fill="#f1c4b3"/><g opacity="0.2"><path d="M228.75,196.92a4.49,4.49,0,0,1-1-.11,4.26,4.26,0,0,1-3.18-2.94c-3.49-11.33-6.89-30.88-6.93-31.07a.5.5,0,0,1,1-.17c0,.19,3.43,19.67,6.89,30.94a3.32,3.32,0,0,0,5.62,1.27l9.59-10.48a.5.5,0,1,1,.73.68l-9.58,10.47A4.27,4.27,0,0,1,228.75,196.92Z"/></g><g opacity="0.2"><path d="M279.93,192.54a2.61,2.61,0,0,1-1-.2l-7.54-3a.5.5,0,0,1-.28-.65.49.49,0,0,1,.65-.28l7.54,3a1.73,1.73,0,0,0,2.34-1.92,91.83,91.83,0,0,0-6.68-21.23.49.49,0,0,1,.24-.66.5.5,0,0,1,.67.24,92.43,92.43,0,0,1,6.75,21.46,2.7,2.7,0,0,1-.94,2.62A2.74,2.74,0,0,1,279.93,192.54Z"/></g><g opacity="0.2"><path d="M304.85,216.9a.5.5,0,0,1-.5-.5.49.49,0,0,1,.46-.5c1.28-.42,12.39-12.19,16.55-22.74a.49.49,0,0,1,.64-.28.5.5,0,0,1,.29.65C318.3,203.63,306.7,216.9,304.85,216.9Z"/></g><g opacity="0.2"><path d="M303.89,275.17a.51.51,0,0,1-.44-.26c-6.41-11.86-3.6-29-3.57-29.14a165.22,165.22,0,0,0,.95-34.45.5.5,0,0,1,1-.09,167.51,167.51,0,0,1-1,34.69c0,.18-2.78,17,3.47,28.51a.51.51,0,0,1-.2.68A.53.53,0,0,1,303.89,275.17Z"/></g><g opacity="0.2"><path d="M291.08,280H291a.51.51,0,0,1-.39-.59c0-.07,1.47-6.52,10.14-5.84a.57.57,0,0,1,.24.08s3.64,2.18,10.24-4.73c.21-.17,16.38-12.91,35.48,4.95a.48.48,0,0,1,0,.7.5.5,0,0,1-.71,0c-18.48-17.27-34-5.07-34.12-4.95-6.6,6.9-10.59,5.31-11.35,4.91-7.67-.52-8.92,4.83-9,5.06A.5.5,0,0,1,291.08,280Z"/></g><g opacity="0.2"><path d="M207.84,230.66a.48.48,0,0,1-.32-.11c-25.52-21.11-42.14-22.61-42.3-22.62a.5.5,0,0,1,.07-1c.17,0,17.11,1.54,42.87,22.85a.5.5,0,0,1-.32.88Z"/></g><g opacity="0.2"><path d="M219.23,239.85a.51.51,0,0,1-.42-.23l-6.3-9.74A25.84,25.84,0,0,1,207.56,215a.5.5,0,0,1,.5-.48h0a.51.51,0,0,1,.48.52,25.36,25.36,0,0,0,4.77,14.31l6.32,9.76a.49.49,0,0,1-.15.69A.5.5,0,0,1,219.23,239.85Z"/></g><g opacity="0.2"><path d="M192,278a.48.48,0,0,1-.2,0,.49.49,0,0,1-.26-.65c.23-.56,5.92-13.74,17.78-17.2a.5.5,0,0,1,.62.34.49.49,0,0,1-.34.62c-11.39,3.33-17.08,16.5-17.14,16.63A.5.5,0,0,1,192,278Z"/></g><g opacity="0.2"><path d="M187.71,305.76a.51.51,0,0,1-.5-.43c-.87-6.39.84-9.89.91-10a22,22,0,0,0,2-11.73.5.5,0,0,1,1-.16,22.69,22.69,0,0,1-2,12.33s-1.64,3.41-.81,9.46a.51.51,0,0,1-.43.57Z"/></g><g opacity="0.2"><path d="M267.15,290.16h-.1a.51.51,0,0,1-.39-.6,34.74,34.74,0,0,0-3.42-23.37c-4.57-9.49-3.28-31.82-3.22-32.77a.52.52,0,0,1,.53-.47.5.5,0,0,1,.47.53c0,.23-1.34,23,3.09,32.23a35.75,35.75,0,0,1,3.53,24.06A.49.49,0,0,1,267.15,290.16Z"/></g><ellipse cx="221.35" cy="132.42" rx="6.78" ry="10.72" transform="translate(-31.71 182.34) rotate(-42.05)" fill="#f1c4b3"/><path d="M246.4,162.24s3.29,14.58-4.94,33.4l-32,64.91s-20.69,42.1,7.76,52c0,0,17.64,6.82,26.35-24.46,0,0,17.87-53.86,24.45-90.31,0,0,9.41-19.76,7.06-35,0,0,.94-6.58-1.65-10.82,0,0,4.86-11.15,5.89-18.07a2.17,2.17,0,0,0-3.9-1.59c-.17.24-.35.49-.53.77A84.89,84.89,0,0,1,265,145.11l-11.11,11.25s-3.76.24-3.76-6.11c0,0-.19-6.54-7.52-6.92a1.48,1.48,0,0,0-1.4,2.17A43.66,43.66,0,0,1,246.4,162.24Z" fill="#f1c4b3"/><path d="M262.71,164.59a.52.52,0,0,1-.33-.12.5.5,0,0,1,0-.71l10.73-12.2a.5.5,0,0,1,.7,0,.49.49,0,0,1,.05.7l-10.73,12.2A.52.52,0,0,1,262.71,164.59Z" fill="#f19e9d"/><path d="M268.25,171.09a.5.5,0,0,1-.37-.83l6.83-7.88a.51.51,0,0,1,.71,0,.51.51,0,0,1,.05.71l-6.84,7.87A.49.49,0,0,1,268.25,171.09Z" fill="#f19e9d"/><rect x="131.61" y="320.94" width="122.78" height="20.91" rx="10.46" fill="#e6e7e8"/><ellipse cx="334.72" cy="75.05" rx="45.28" ry="35.53" fill="#0047FF"/><ellipse cx="338.43" cy="73.19" rx="45.28" ry="35.53" fill="#fff"/><path d="M338.43,109.23c-25.24,0-45.78-16.17-45.78-36s20.54-36,45.78-36,45.78,16.16,45.78,36S363.67,109.23,338.43,109.23Zm0-71.07c-24.69,0-44.78,15.71-44.78,35s20.09,35,44.78,35,44.78-15.72,44.78-35S363.12,38.16,338.43,38.16Z" fill="#0047FF"/><path d="M340.26,75.85c0-3.55,1.9-5.06,3.66-6.51,1.65-1.29,3.18-2.54,3.18-5.17,0-2.85-2.08-4.69-5-4.69-2.71,0-5,1.68-5.13,4.43h-2.95c.2-4.71,3.91-7.34,8.08-7.34,4.44,0,8,2.85,8,7.6,0,3.75-1.95,5.38-3.76,6.84-1.56,1.31-3,2.48-3,4.84v.81h-3.11Zm-.23,4h3.57V83.7H340Z" fill="#000000"/><path d="M332.6,71.42c0,3.55-1.91,5.07-3.67,6.51-1.64,1.29-3.18,2.54-3.18,5.17,0,2.85,2.08,4.69,5,4.69,2.71,0,5-1.68,5.12-4.43h2.95c-.2,4.71-3.9,7.34-8.07,7.34-4.44,0-8-2.85-8-7.6,0-3.75,1.95-5.38,3.77-6.84,1.56-1.31,3-2.48,3-4.84v-.81h3.12Zm.23-4h-3.58v-3.9h3.58Z" fill="#000000"/></svg>