<svg width="719" height="607" viewBox="0 0 719 607" fill="none" xmlns="http://www.w3.org/2000/svg">
<g clip-path="url(#clip0_240_536)">
<path d="M573.94 65.007C592.6 65.007 613.26 62.0365 632.31 52.745C634.48 53.7552 651.92 61.4964 674.02 61.5064C688.07 61.5064 703.99 58.3759 719.08 48.3943L719.3 48.2443V0.186523H420.95V49.5345L421.11 49.6845C421.43 49.9745 453.83 78.4591 514.31 55.7255C516.69 56.5356 542.43 65.007 573.94 65.007ZM632.3 51.6348L632.08 51.7448C579.87 77.359 515.11 54.9553 514.47 54.7253L514.3 54.6653L514.13 54.7253C456.32 76.5188 424.5 51.2347 421.95 49.0844V1.18668H718.31V47.7142C678.58 73.7984 632.99 51.9749 632.53 51.7548L632.31 51.6448L632.3 51.6348Z" fill="#002346"/>
<path d="M573.94 74.0088C592.6 74.0088 613.26 71.0383 632.31 61.7468C634.48 62.757 651.92 70.4982 674.02 70.5082C688.07 70.5082 703.99 67.3777 719.08 57.3961L719.3 57.2461V47.9746H718.3V56.706C678.57 82.7902 632.98 60.9667 632.52 60.7467L632.3 60.6367L632.08 60.7467C579.87 86.3608 515.11 63.9572 514.47 63.7271L514.3 63.6671L514.13 63.7271C456.32 85.5207 424.5 60.2366 421.95 58.0862V49.3148H420.95V58.5363L421.11 58.6863C421.43 58.9764 453.83 87.461 514.31 64.7273C516.69 65.5374 542.43 74.0088 573.94 74.0088Z" fill="#002346"/>
<path d="M573.94 86.0103C592.6 86.0103 613.26 83.0398 632.31 73.7483C634.48 74.7585 651.92 82.4997 674.02 82.5097C688.07 82.5097 703.99 79.3792 719.08 69.3976L719.3 69.2476V56.9756H718.3V68.7075C678.57 94.7917 632.98 72.9682 632.52 72.7481L632.3 72.6381L632.08 72.7481C579.87 98.3623 515.11 75.9586 514.47 75.7286L514.3 75.6686L514.13 75.7286C456.32 97.5221 424.5 72.238 421.95 70.0877V58.3158H420.95V70.5378L421.11 70.6878C421.43 70.9778 453.83 99.4624 514.31 76.7288C516.69 77.5389 542.43 86.0103 573.94 86.0103Z" fill="#002346"/>
<path d="M435.59 436.757H706.46V75.4287H705.46V435.757H436.59V78.8193H435.59V436.757Z" fill="#002346"/>
<path d="M460.45 399.751H681.6V81.8096H680.6V398.751H461.45V84.73H460.45V399.751Z" fill="#002346"/>
<path d="M460.95 101.772H681.1V102.773H460.95V101.772Z" fill="#002346"/>
<path d="M460.95 200.789H681.1V201.789H460.95V200.789Z" fill="#002346"/>
<path d="M459.95 299.805H680.1V300.805H459.95V299.805Z" fill="#002346"/>
<path d="M607.5 81.8096H608.5V399.251H607.5V81.8096Z" fill="#002346"/>
<path d="M529.88 81.8096H530.88V399.251H529.88V81.8096Z" fill="#002346"/>
<path d="M681.504 398.992L706.395 435.982L705.565 436.541L680.675 399.55L681.504 398.992Z" fill="#002346"/>
<path d="M460.547 399.011L461.377 399.568L436.525 436.572L435.695 436.015L460.547 399.011Z" fill="#002346"/>
<path d="M602.44 345.522C602.44 345.522 585.03 330.87 565.26 345.132C565.26 345.132 552.85 354.783 561.12 363.065C561.12 363.065 569.86 369.046 582.73 358.924C582.73 358.924 596.41 347.752 602.44 345.522Z" fill="#3265E7"/>
<path d="M568.101 365.245C571.931 365.245 577.061 363.965 583.011 359.294C583.151 359.174 596.711 348.143 602.601 345.962L603.351 345.682L602.741 345.172C602.561 345.022 584.821 330.46 564.991 344.762C564.701 344.982 558.211 350.103 557.831 356.224C557.671 358.854 558.661 361.265 560.791 363.395C560.871 363.455 563.581 365.245 568.111 365.245H568.101ZM601.511 345.402C595.191 348.183 582.971 358.124 582.431 358.564C569.981 368.356 561.461 362.735 561.381 362.675C559.511 360.795 558.611 358.624 558.751 356.274C559.101 350.573 565.471 345.542 565.541 345.492C582.701 333.12 598.241 343.022 601.511 345.392V345.402Z" fill="#002346"/>
<path d="M621.69 338.361C621.69 338.361 602.49 311.557 613.99 285.353C613.99 285.353 626.86 259.599 611.69 251.787C611.69 251.787 592.84 243.966 582.73 271.561C582.73 271.561 569.17 311.827 621.7 338.371L621.69 338.361Z" fill="#3265E7"/>
<path d="M623.16 339.631L622.06 338.091C621.87 337.821 603.15 311.197 614.41 285.533C614.53 285.293 627.3 259.298 611.9 251.367C611.6 251.237 605.23 248.667 597.81 251.927C591.18 254.828 585.96 261.379 582.29 271.4C582.25 271.51 578.89 281.762 582.06 295.114C584.98 307.426 594.19 324.989 621.48 338.771L623.17 339.621L623.16 339.631ZM605.58 251.237C609.07 251.237 611.47 252.207 611.5 252.217C626.05 259.719 613.69 284.893 613.56 285.153C603.62 307.816 616.55 331.13 620.33 337.151C594.59 323.669 585.79 306.816 582.97 294.954C579.85 281.842 583.13 271.81 583.16 271.71C586.74 261.959 591.79 255.588 598.18 252.787C600.87 251.607 603.44 251.237 605.59 251.237H605.58Z" fill="#002346"/>
<path d="M670.49 261.119C675.26 263.469 678.39 268.3 678.31 273.621C678.21 280.262 674.14 289.403 654.91 294.544C654.91 294.544 632.35 300.135 629.84 316.878C629.84 316.878 623.62 296.125 634.23 276.301C638.3 268.71 645.06 262.839 653.3 260.339C658.48 258.769 664.65 258.228 670.49 261.109V261.119Z" fill="#3265E7"/>
<path d="M629.98 319.008L630.29 316.958C632.73 300.715 654.79 295.054 655.01 295.004C674.46 289.793 678.66 280.512 678.76 273.631C678.84 268.24 675.67 263.169 670.68 260.709C665.58 258.198 659.68 257.928 653.15 259.908C644.93 262.399 638.06 268.15 633.8 276.101C623.22 295.864 629.31 316.818 629.38 317.028L629.98 319.008ZM661.4 259.528C664.59 259.528 667.55 260.198 670.27 261.539C674.94 263.839 677.9 268.58 677.83 273.611C677.73 280.172 673.66 289.043 654.77 294.094C654.56 294.144 633.75 299.475 629.78 314.757C628.57 309.116 626.11 292.424 634.62 276.531C638.76 268.8 645.43 263.209 653.42 260.789C656.21 259.938 658.87 259.518 661.4 259.518V259.528Z" fill="#002346"/>
<path d="M671.56 330.07C670.4 332.28 668.26 334.73 664.56 337.321C664.56 337.321 650.04 345.742 646.27 357.624C646.27 357.624 646.63 338.241 657.67 323.529C657.67 323.529 658.63 321.718 660.6 320.298C667.1 315.617 675.29 322.979 671.57 330.07H671.56Z" fill="#3265E7"/>
<path d="M645.74 360.795L646.71 357.755C650.39 346.183 664.65 337.791 664.79 337.711C668.23 335.301 670.64 332.811 671.97 330.28C674.05 326.32 672.54 322.429 670.13 320.339C667.27 317.848 663.42 317.688 660.32 319.918C658.29 321.379 657.3 323.229 657.26 323.309C646.3 337.911 645.81 357.415 645.81 357.615L645.75 360.805L645.74 360.795ZM664.93 319.278C666.76 319.278 668.39 320.059 669.52 321.029C671.5 322.749 673.12 326.089 671.15 329.84C669.89 332.24 667.59 334.621 664.3 336.921C663.78 337.221 651.82 344.252 646.95 354.624C647.54 348.643 649.78 334.811 658.04 323.779C658.09 323.699 659.02 321.979 660.87 320.649C662.25 319.658 663.64 319.268 664.94 319.268L664.93 319.278Z" fill="#002346"/>
<path d="M653.98 375.947L651.54 423.995H610.77L608.01 376.407L653.98 375.947Z" fill="white"/>
<path d="M610.77 424.465H651.54C651.79 424.465 651.99 424.275 652 424.025L654.44 375.977C654.44 375.847 654.4 375.727 654.31 375.637C654.22 375.547 654.11 375.487 653.97 375.497L607.99 375.957C607.86 375.957 607.74 376.007 607.66 376.107C607.57 376.197 607.53 376.327 607.54 376.447L610.3 424.045C610.31 424.295 610.52 424.485 610.76 424.485L610.77 424.465ZM651.1 423.535H611.21L608.5 376.867L653.5 376.417L651.1 423.535Z" fill="#002346"/>
<path d="M622.26 376.177C622.26 376.177 622.28 376.177 622.3 376.177C622.56 376.157 622.75 375.937 622.73 375.677C622.72 375.487 621.14 356.514 608.1 347.683C600.37 342.452 590.25 341.752 578 345.602C577.76 345.682 577.62 345.942 577.7 346.182C577.78 346.423 578.03 346.563 578.28 346.483C590.24 342.722 600.1 343.382 607.58 348.443C620.25 357.024 621.8 375.557 621.81 375.737C621.83 375.977 622.03 376.167 622.27 376.167L622.26 376.177Z" fill="#002346"/>
<path d="M629.34 375.857C629.54 375.857 629.73 375.727 629.79 375.517C637.02 349.683 619.52 334.711 615.94 331.97C614.87 331.15 613.62 330.18 612.41 329.14C580.64 301.795 599.02 271.181 599.21 270.88C599.34 270.66 599.28 270.38 599.06 270.24C598.84 270.1 598.56 270.17 598.42 270.39C598.23 270.7 579.43 301.975 611.8 329.84C613.02 330.89 614.29 331.88 615.37 332.7C618.87 335.371 635.95 350.003 628.89 375.257C628.82 375.507 628.97 375.757 629.21 375.827C629.25 375.837 629.29 375.847 629.34 375.847V375.857Z" fill="#002346"/>
<path d="M632.65 376.197C632.81 376.197 632.96 376.117 633.04 375.977C644.28 357.864 635.9 334.8 633.06 328.159C632.35 326.489 631.84 325.089 631.47 323.768C623.58 295.344 647.56 278.091 647.81 277.921C648.02 277.771 648.07 277.481 647.92 277.271C647.77 277.061 647.48 277.011 647.27 277.161C647.02 277.331 622.5 294.944 630.57 324.018C630.95 325.389 631.47 326.819 632.2 328.529C634.99 335.06 643.24 357.764 632.24 375.497C632.1 375.717 632.17 375.997 632.39 376.137C632.47 376.187 632.55 376.207 632.63 376.207L632.65 376.197Z" fill="#002346"/>
<path d="M644.46 375.907C644.46 375.907 644.47 375.907 644.48 375.907C644.74 375.897 644.94 375.677 644.92 375.427C643.7 345.232 661.41 333.22 661.59 333.1C661.8 332.96 661.86 332.67 661.72 332.46C661.58 332.25 661.29 332.19 661.08 332.33C660.9 332.45 642.75 344.722 644 375.467C644.01 375.717 644.22 375.917 644.46 375.917V375.907Z" fill="#002346"/>
<path d="M449.02 478.442H404.75C400.57 478.442 397.18 481.833 397.18 486.014V571.587H456.57V486.084C456.61 481.903 453.27 478.482 449.09 478.442C449.09 478.442 449.08 478.442 449.07 478.442H449.02Z" fill="#F0F0F0"/>
<path d="M397.169 491.115H456.569V497.796H397.169V491.115Z" fill="#E6E6E6"/>
<path d="M422.79 560.406H407.99C405.74 560.406 403.92 562.226 403.92 564.477V571.688H426.92V564.407C426.92 562.156 425.1 560.336 422.85 560.336L422.79 560.406Z" fill="#E0E0E0"/>
<path d="M403.849 571.658H420.309C421.769 571.658 422.949 570.477 422.949 569.017C422.949 567.567 421.759 566.387 420.309 566.387H403.849C402.399 566.387 401.219 567.567 401.209 569.017C401.209 570.477 402.389 571.658 403.849 571.658Z" fill="#E6E6E6"/>
<path d="M149.41 99.4516C127.075 99.4516 108.97 81.3431 108.97 59.0051C108.97 36.6671 127.075 18.5586 149.41 18.5586C171.744 18.5586 189.85 36.6671 189.85 59.0051C189.85 81.3431 171.744 99.4516 149.41 99.4516Z" fill="#E6E7E8"/>
<path d="M149.49 99.9718C157 99.9718 164.39 97.8914 170.94 93.8408C180.24 88.0899 186.75 79.0584 189.26 68.4167C191.77 57.775 189.99 46.7832 184.24 37.4817C178.49 28.1802 169.46 21.6691 158.82 19.1587C136.84 13.9679 114.76 27.6301 109.57 49.6036C107.06 60.2454 108.84 71.2371 114.59 80.5386C120.34 89.8401 129.37 96.3512 140.01 98.8616C143.16 99.6017 146.34 99.9718 149.49 99.9718ZM149.41 19.0587C152.44 19.0587 155.51 19.4088 158.59 20.1289C168.97 22.5793 177.78 28.9303 183.39 38.0018C189 47.0832 190.74 57.795 188.29 68.1766C185.84 78.5583 179.49 87.3697 170.42 92.9806C161.34 98.5915 150.63 100.332 140.25 97.8814C129.87 95.431 121.06 89.08 115.45 80.0085C109.84 70.9371 108.1 60.2154 110.55 49.8337C114.88 31.4707 131.32 19.0587 149.42 19.0587H149.41Z" fill="#002346"/>
<path d="M149.41 93.3604C130.417 93.3604 115.02 77.961 115.02 58.9649C115.02 39.9687 130.417 24.5693 149.41 24.5693C168.403 24.5693 183.8 39.9687 183.8 58.9649C183.8 77.961 168.403 93.3604 149.41 93.3604Z" fill="white"/>
<path d="M149.41 93.8606C168.65 93.8606 184.3 78.208 184.3 58.965C184.3 39.7219 168.65 24.0693 149.41 24.0693C130.17 24.0693 114.52 39.7219 114.52 58.965C114.52 78.208 130.17 93.8606 149.41 93.8606ZM149.41 25.0695C168.1 25.0695 183.3 40.2719 183.3 58.965C183.3 77.658 168.1 92.8604 149.41 92.8604C130.72 92.8604 115.52 77.658 115.52 58.965C115.52 40.2719 130.72 25.0695 149.41 25.0695Z" fill="#002346"/>
<path d="M232.554 152.668L275.324 175.711C276.476 176.332 276.907 177.769 276.286 178.922L262.638 204.264C262.017 205.416 260.579 205.847 259.427 205.226L216.657 182.184C215.505 181.563 215.074 180.126 215.695 178.973L229.344 153.631C229.964 152.479 231.402 152.048 232.554 152.668Z" fill="#0047FF"/>
<path d="M260.55 206.009C261.57 206.009 262.56 205.459 263.08 204.498L276.73 179.154C277.48 177.764 276.96 176.014 275.56 175.264L232.79 152.22C231.4 151.47 229.65 151.99 228.9 153.39L215.25 178.734C214.89 179.404 214.81 180.184 215.03 180.925C215.25 181.665 215.74 182.265 216.42 182.625L259.19 205.669C259.62 205.899 260.09 206.009 260.55 206.009ZM275.09 176.154C276 176.644 276.34 177.784 275.85 178.684L262.2 204.028C261.96 204.468 261.57 204.788 261.09 204.928C260.62 205.068 260.11 205.018 259.67 204.778L216.9 181.735C216.46 181.495 216.14 181.105 216 180.625C215.86 180.144 215.91 179.644 216.15 179.204L229.8 153.86C230.29 152.95 231.43 152.61 232.33 153.1L275.1 176.144L275.09 176.154Z" fill="#002346"/>
<path d="M208.28 153.34C212.8 142.449 253.28 115.674 250.38 113.254C247.48 110.834 240.2 115.984 240.2 115.984C240.2 115.984 244.27 111.284 240.2 110.984C236.13 110.684 227.29 116.134 227.29 116.134C227.29 116.134 231.58 111.224 227.29 110.984C223 110.744 214.84 118.675 214.84 118.675C214.84 118.675 220.51 110.514 211.9 116.404C203.29 122.295 196.22 141.549 195.76 151.1C195.3 160.652 203.76 164.232 208.28 153.34Z" fill="white"/>
<path d="M201.33 160.542C204.18 160.542 206.89 158.011 208.75 153.53C211.2 147.63 224.75 136.708 235.64 127.926C245.75 119.775 251.02 115.434 251.04 113.604C251.04 113.314 250.93 113.054 250.71 112.874C248.55 111.064 244.44 112.904 241.96 114.304C242.4 113.444 242.71 112.464 242.39 111.684C242.1 110.974 241.38 110.564 240.25 110.484C237.24 110.254 231.91 112.944 229.02 114.554C229.54 113.624 229.92 112.524 229.57 111.684C229.26 110.954 228.51 110.554 227.33 110.484C224.26 110.324 219.63 113.834 216.83 116.214C217.2 115.324 217.33 114.504 216.89 114.054C216.38 113.534 215.39 113.414 211.62 115.984C202.97 121.905 195.73 141.349 195.26 151.07C195.03 155.861 197.08 159.711 200.24 160.422C200.6 160.502 200.96 160.542 201.32 160.542H201.33ZM207.83 153.14C205.97 157.631 203.15 160.042 200.48 159.441C197.8 158.841 196.07 155.411 196.27 151.12C196.73 141.599 203.77 122.576 212.19 116.815C215.47 114.574 216.14 114.744 216.2 114.774C216.33 115.104 215.5 116.845 214.43 118.385L215.19 119.025C215.27 118.945 223.27 111.254 227.26 111.474C228.02 111.514 228.49 111.714 228.63 112.064C229.01 112.964 227.63 114.964 226.91 115.794L224.74 118.285L227.55 116.555C227.64 116.505 236.33 111.194 240.16 111.474C240.87 111.524 241.31 111.724 241.45 112.054C241.8 112.894 240.64 114.704 239.82 115.644L237.14 118.745L240.49 116.375C242.43 115.004 247.93 111.834 250.06 113.624C250.19 114.884 242.12 121.385 235 127.136C224.02 135.988 210.36 147.009 207.82 153.14H207.83Z" fill="#002346"/>
<path d="M126.769 120.025C127.119 120.025 127.409 119.735 127.409 119.385C127.409 119.115 127.239 118.885 126.989 118.785C125.379 118.114 123.729 117.544 122.059 117.064C121.719 116.934 121.349 117.104 121.219 117.434C121.089 117.774 121.259 118.144 121.589 118.275C121.619 118.285 121.649 118.295 121.679 118.305C123.329 118.805 124.949 119.335 126.559 119.905C126.629 119.905 126.699 119.905 126.769 119.905V120.025Z" fill="#002346"/>
<path d="M33.3892 258.287C33.7292 258.217 33.9492 257.877 33.8792 257.537C33.8092 257.187 33.4792 256.957 33.1292 257.017C29.7692 257.637 26.3592 257.967 22.9392 258.017C22.5792 258.057 22.3292 258.387 22.3792 258.747C22.4192 259.047 22.6492 259.277 22.9392 259.307C26.4492 259.257 29.9392 258.917 33.3892 258.287ZM12.7792 258.787C13.0592 258.747 13.2792 258.527 13.3192 258.247C13.3792 257.897 13.1392 257.557 12.7892 257.497C9.38924 257.107 5.99923 256.537 2.65923 255.786C2.31923 255.696 1.9692 255.906 1.8792 256.247C1.7892 256.587 1.99923 256.937 2.33923 257.027C2.35923 257.027 2.37921 257.027 2.38921 257.037C5.78921 257.817 9.2292 258.387 12.6892 258.757L12.7892 258.787H12.7792ZM43.1592 255.356C43.2692 255.356 43.3792 255.316 43.4692 255.266C46.6992 253.866 49.7092 251.986 52.3792 249.685C52.6592 249.445 52.6892 249.035 52.4492 248.755C52.2092 248.475 51.7992 248.445 51.5192 248.685C48.9492 250.906 46.0592 252.716 42.9392 254.066C42.6192 254.216 42.4892 254.596 42.6392 254.916C42.7392 255.146 42.9692 255.296 43.2192 255.286L43.1592 255.356ZM-6.84077 253.756C-6.73077 253.416 -6.91079 253.056 -7.24079 252.936C-10.4908 251.856 -13.7108 250.596 -16.8408 249.225C-17.1308 249.125 -17.4608 249.245 -17.6108 249.515C-17.7908 249.825 -17.6808 250.226 -17.3708 250.406C-14.1908 251.796 -10.9108 253.066 -7.65076 254.156H-7.45081C-7.18081 254.156 -6.94077 253.996 -6.84077 253.756ZM-26.4508 245.855C-26.1908 245.905 -25.9208 245.795 -25.7708 245.565C-25.6008 245.265 -25.7108 244.875 -26.0108 244.705C-29.0108 243.004 -32.0108 241.164 -34.7508 239.254C-35.0408 239.054 -35.4408 239.124 -35.6408 239.414C-35.8508 239.694 -35.7808 240.094 -35.5008 240.294C-35.5008 240.294 -35.5008 240.294 -35.4908 240.294C-32.7008 242.234 -29.7208 244.085 -26.6408 245.805C-26.5408 245.835 -26.4308 245.835 -26.3308 245.805L-26.4408 245.845L-26.4508 245.855ZM58.4392 241.924C58.6992 241.984 58.9792 241.874 59.1292 241.654C59.6792 240.654 60.1892 239.654 60.6592 238.654C61.6392 236.473 62.4092 234.213 62.9692 231.893C63.0592 231.553 62.8592 231.202 62.5192 231.102C62.5192 231.102 62.5192 231.102 62.5092 231.102C62.1592 231.022 61.8092 231.232 61.7192 231.583C61.1892 233.833 60.4392 236.023 59.4892 238.124C59.0392 239.124 58.5392 240.124 58.0092 241.004C57.8392 241.304 57.9392 241.694 58.2492 241.864C58.3492 241.894 58.4592 241.894 58.5592 241.864L58.4392 241.924ZM-43.3908 233.993C-43.1808 233.953 -43.0108 233.823 -42.9208 233.633C-42.6808 233.373 -42.6808 232.983 -42.9208 232.723C-45.4908 230.462 -47.8908 228.022 -50.1208 225.422C-50.3608 225.172 -50.7508 225.172 -51.0008 225.412C-51.0008 225.412 -51.0008 225.412 -51.0108 225.422C-51.2608 225.672 -51.2608 226.082 -51.0108 226.332C-48.7408 228.982 -46.2908 231.473 -43.6808 233.783C-43.5608 233.883 -43.4208 233.933 -43.2708 233.943L-43.3908 233.993ZM63.5092 221.991C63.8692 221.991 64.1592 221.701 64.1592 221.341C64.1292 217.85 63.7892 214.36 63.1592 210.929C63.0892 210.579 62.7492 210.339 62.3992 210.399C62.0492 210.469 61.8192 210.799 61.8892 211.149C62.4892 214.51 62.8092 217.92 62.8292 221.341C62.8292 221.691 63.1192 221.981 63.4692 221.981H63.5092V221.991ZM60.2592 201.598C60.5992 201.488 60.7892 201.128 60.6892 200.788C59.7992 197.787 58.6892 194.537 57.3792 190.936C57.2492 190.606 56.8792 190.436 56.5492 190.556C56.2292 190.686 56.0692 191.056 56.1992 191.386C57.5292 194.957 58.6092 198.147 59.4792 201.158C59.5692 201.428 59.8192 201.618 60.0992 201.618L60.2592 201.598ZM53.2592 182.085C53.5892 181.935 53.7492 181.544 53.5992 181.214C52.5092 178.514 51.0292 175.403 49.4492 171.973V171.803C49.2592 171.493 48.8592 171.393 48.5592 171.583C48.2992 171.743 48.1792 172.063 48.2792 172.353V172.523C49.8392 175.874 51.3392 179.034 52.4392 181.775C52.5392 181.995 52.7592 182.135 52.9992 182.135L53.2592 182.085ZM44.4392 163.352C44.5192 163.322 44.5892 163.272 44.6492 163.212C44.9692 163.072 45.1192 162.691 44.9792 162.371C43.4392 158.821 42.2192 155.68 41.2592 152.77C41.1492 152.43 40.7792 152.24 40.4392 152.35C40.0992 152.47 39.9292 152.84 40.0492 153.18C41.0492 156.11 42.2592 159.291 43.8092 162.881C43.9192 163.112 44.1492 163.262 44.4092 163.262L44.4392 163.352ZM38.2292 143.588C38.5692 143.518 38.7992 143.198 38.7592 142.848C38.4792 141.068 38.3292 139.268 38.3292 137.467C38.3192 135.887 38.4592 134.317 38.7592 132.767C38.7792 132.467 38.5992 132.187 38.3092 132.087C37.9692 131.976 37.5992 132.167 37.4892 132.507C37.1792 134.157 37.0292 135.837 37.0392 137.507C37.0392 139.378 37.1892 141.238 37.4892 143.078C37.5392 143.388 37.8092 143.618 38.1192 143.628L38.2292 143.588ZM42.6392 124.165C42.8592 124.165 43.0692 124.045 43.1892 123.855C45.3792 121.285 48.0492 119.164 51.0492 117.614C51.3592 117.444 51.4792 117.064 51.3292 116.744C51.1492 116.434 50.7692 116.324 50.4492 116.484C47.2992 118.114 44.4992 120.335 42.1892 123.025C41.9492 123.285 41.9492 123.675 42.1892 123.935C42.3092 124.025 42.4492 124.075 42.5992 124.075L42.6392 124.165ZM111.889 115.674C112.179 115.674 112.439 115.464 112.499 115.174C112.579 114.824 112.359 114.474 112.009 114.394C108.579 113.704 105.139 113.113 101.709 112.673C101.369 112.623 101.049 112.873 100.999 113.213C100.999 113.213 100.999 113.213 100.999 113.223C100.949 113.564 101.199 113.884 101.539 113.934C101.539 113.934 101.539 113.934 101.549 113.934C104.999 114.384 108.419 114.934 111.709 115.654H111.899V115.674H111.889ZM60.4292 114.194C63.7592 113.444 67.1492 112.953 70.5592 112.733C70.9092 112.703 71.1692 112.393 71.1392 112.043C71.1092 111.693 70.7992 111.423 70.4492 111.443C66.9792 111.683 63.5392 112.183 60.1492 112.943C59.7992 112.973 59.5492 113.283 59.5792 113.624C59.5792 113.624 59.5792 113.634 59.5792 113.644C59.6192 113.994 59.9392 114.254 60.2892 114.214L60.4292 114.194ZM91.3292 113.093C91.6492 113.023 91.8592 112.723 91.8292 112.403C91.8492 112.063 91.5892 111.763 91.2492 111.743C91.2492 111.743 91.2392 111.743 91.2292 111.743C88.3092 111.533 84.7192 111.323 80.9292 111.243C80.5792 111.243 80.2992 111.523 80.2992 111.873C80.2992 112.233 80.5692 112.523 80.9292 112.533C84.6892 112.603 88.2492 112.823 91.2292 113.023L91.3292 113.093Z" fill="#002346"/>
<path d="M521.96 241.245L503.81 431.325L494.64 431.315L513.62 240.814L521.96 241.245Z" fill="#F1F2F2"/>
<path d="M504.27 431.825L504.31 431.375L522.5 240.774L513.16 240.294L513.11 240.764L494.08 431.815H504.26L504.27 431.825ZM521.41 241.734L503.36 430.845H495.2L514.07 241.364L521.41 241.744V241.734Z" fill="#002346"/>
<path d="M496.409 241.235L484.329 428.835H476.819L487.249 240.814L496.409 241.235Z" fill="#F1F2F2"/>
<path d="M476.299 429.335H484.809L484.839 428.865L496.949 240.754L486.789 240.284L476.299 429.325V429.335ZM483.869 428.334H477.359L487.729 241.334L495.889 241.704L483.869 428.324V428.334Z" fill="#002346"/>
<path d="M497.66 606.013H506.84V444.677H493.08L497.66 606.013Z" fill="#F1F2F2"/>
<path d="M497.18 606.513H507.35V444.177H492.58L497.19 606.513H497.18ZM506.35 605.513H498.16L493.61 445.177H506.36V605.513H506.35Z" fill="#002346"/>
<path d="M445.56 605.173H454.73L458.48 444.677H444.73L445.56 605.173Z" fill="#F1F2F2"/>
<path d="M445.07 605.673H455.23V605.183L459 444.177H444.24V444.677L445.08 605.673H445.07ZM454.25 604.673H446.07L445.25 445.177H457.99L454.26 604.673H454.25Z" fill="#002346"/>
<path d="M431.81 605.593H422.64L418.89 445.087H432.64L431.81 605.593Z" fill="#F1F2F2"/>
<path d="M422.159 606.093H432.319V605.593L433.159 444.587H418.399V445.097L422.169 606.093H422.159ZM431.319 605.093H423.139L419.409 445.587H432.149L431.329 605.093H431.319Z" fill="#002346"/>
<path d="M365.199 605.593H356.029L352.609 446.348H366.369L365.199 605.593Z" fill="#F1F2F2"/>
<path d="M355.55 606.093H365.71V605.593L366.89 445.848H352.12V446.358L355.56 606.093H355.55ZM364.71 605.093H356.53L353.13 446.848H365.88L364.72 605.093H364.71Z" fill="#002346"/>
<path d="M435.56 425.494H508.5V447.168H435.56V425.494Z" fill="#E6E7E8"/>
<path d="M435.07 447.668H509.01V424.994H435.07V447.668ZM508.01 446.668H436.07V425.994H508.01V446.668Z" fill="#002346"/>
<path d="M350.11 425.494H435.56V447.168H350.11V425.494Z" fill="#E6E7E8"/>
<path d="M349.61 447.668H436.06V424.994H349.61V447.668ZM435.06 446.668H350.61V425.994H435.06V446.668Z" fill="#002346"/>
<path d="M425.97 571.408V588.501H406.38V569.328L425.97 571.408Z" fill="#F2B3C1"/>
<path d="M405.88 589.001H426.47V570.958L405.88 568.768V589.001ZM425.47 588.001H406.88V569.888L425.47 571.858V588.001Z" fill="#002346"/>
<path d="M426.81 603.653V587.25L406.33 586.99L383.44 599.072C382.15 599.752 381.35 601.092 381.35 602.543C381.35 604.693 383.09 606.443 385.24 606.463L423.59 606.813C425.33 606.843 426.78 605.463 426.81 603.713C426.81 603.693 426.81 603.673 426.81 603.653Z" fill="#0047FF"/>
<path d="M423.66 607.314C425.64 607.314 427.28 605.713 427.31 603.723V586.76L406.21 586.49L383.21 598.632C381.76 599.402 380.85 600.903 380.85 602.543C380.85 604.953 382.82 606.943 385.23 606.964L423.58 607.314C423.58 607.314 423.63 607.314 423.65 607.314H423.66ZM426.82 603.653L426.32 603.693C426.29 605.173 425.03 606.353 423.61 606.313L385.26 605.963C383.39 605.943 381.87 604.413 381.87 602.543C381.87 601.273 382.57 600.112 383.69 599.512L406.47 587.49L426.33 587.74V603.653H426.83H426.82Z" fill="#002346"/>
<path d="M335.939 570.999V588.081H316.349V568.908L335.939 570.999Z" fill="#F2B3C1"/>
<path d="M315.859 588.581H336.449V570.548L315.859 568.348V588.581ZM335.449 587.581H316.859V569.468L335.449 571.448V587.581Z" fill="#002346"/>
<path d="M336.77 603.233V586.83L316.29 586.57L293.44 598.652C292.15 599.332 291.35 600.673 291.35 602.123C291.35 604.273 293.09 606.023 295.24 606.043L333.59 606.404C335.34 606.404 336.76 604.993 336.77 603.243V603.233Z" fill="#0047FF"/>
<path d="M333.6 606.904C335.62 606.904 337.27 605.263 337.27 603.243V586.34L316.17 586.07L293.21 598.212C291.75 598.982 290.85 600.483 290.85 602.123C290.85 604.543 292.82 606.524 295.24 606.544L333.59 606.904H333.6ZM336.27 587.321V603.243C336.27 604.713 335.07 605.904 333.6 605.904L295.25 605.543C293.38 605.533 291.86 603.993 291.86 602.123C291.86 600.853 292.56 599.693 293.68 599.092L316.42 587.07L336.28 587.321H336.27Z" fill="#002346"/>
<path d="M447.23 606.013H440.98L474.32 355.873H480.99L462.48 493.035H540.78L522.26 355.873H528.93L562.27 606.013H556.02L541.68 499.706H461.58L447.23 606.013Z" fill="#E6E7E8"/>
<path d="M440.41 606.513H447.67L447.73 606.083L462.02 500.206H541.24L555.59 606.513H562.85L562.77 605.943L529.37 355.373H521.69L521.77 355.943L540.2 492.535H463.05L481.56 355.373H473.88L473.82 355.803L440.4 606.513H440.41ZM446.79 605.513H441.55L474.76 356.373H480.42L461.91 493.535H541.35L541.27 492.965L522.84 356.373H528.5L561.71 605.513H556.47L542.12 499.206H461.15L461.09 499.636L446.8 605.513H446.79Z" fill="#002346"/>
<path d="M120.029 606.013H113.769L147.119 355.873H153.789L135.279 493.035H213.569L195.049 355.873H201.719L235.069 606.013H228.819L214.469 499.706H134.379L120.029 606.013Z" fill="#E6E7E8"/>
<path d="M113.199 606.513H120.469L120.529 606.083L134.819 500.206H214.039L228.389 606.513H235.649L235.569 605.943L202.159 355.373H194.479L194.559 355.943L212.999 492.535H135.859L154.369 355.373H146.689L146.629 355.803L113.209 606.513H113.199ZM119.589 605.513H114.339L147.559 356.373H153.219L134.709 493.535H214.139L214.059 492.965L195.619 356.373H201.279L234.499 605.513H229.259L214.909 499.206H133.939L133.879 499.636L119.589 605.513Z" fill="#002346"/>
<path d="M414.3 218.312L413.47 243.736L525.18 246.236L526.43 221.642L414.3 218.312Z" fill="#E6E7E8"/>
<path d="M525.66 246.746L526.96 221.152L413.82 217.791L412.96 244.215L525.66 246.736V246.746ZM525.91 222.122L524.71 245.716L413.99 243.235L414.79 218.811L525.91 222.112V222.122Z" fill="#002346"/>
<path d="M542.68 347.542H117.94C114.26 347.542 111.27 350.532 111.27 354.213C111.27 357.894 114.26 360.884 117.94 360.884H542.68C546.36 360.884 549.35 357.894 549.35 354.213C549.35 350.532 546.36 347.542 542.68 347.542Z" fill="#F1F2F2"/>
<path d="M117.939 361.384H542.689C546.639 361.384 549.859 358.164 549.859 354.213C549.859 350.262 546.639 347.042 542.689 347.042H117.949C113.999 347.042 110.779 350.262 110.779 354.213C110.779 358.164 113.999 361.384 117.949 361.384H117.939ZM542.679 348.042C546.079 348.042 548.849 350.813 548.849 354.213C548.849 357.614 546.079 360.384 542.679 360.384H117.939C114.539 360.384 111.769 357.614 111.769 354.213C111.769 350.813 114.539 348.042 117.939 348.042H542.689H542.679Z" fill="#002346"/>
<path d="M437.64 579.329H385.12L376.37 464.31C376.37 464.31 375.95 447.638 377.2 439.716C377.2 439.716 355.53 453.889 350.53 456.389L352.06 570.817C352.06 570.817 316.76 578.949 300.51 573.948L294.67 449.298C294.67 449.298 290.51 418.033 314.67 398.02L358.67 361.074L472.81 360.684C472.81 360.684 484.81 406.361 460.18 432.625L435.63 457.089C433.68 459.029 432.64 461.7 432.76 464.45L437.64 579.329Z" fill="white"/>
<path d="M384.66 579.829H438.17L438.15 579.309L433.27 464.43C433.15 461.83 434.15 459.28 435.99 457.439L460.54 432.975C485.09 406.801 473.42 361.014 473.3 360.554L473.2 360.184L358.49 360.574L358.35 360.694L314.35 397.64C290.26 417.593 294.13 449.048 294.18 449.368L300.03 574.328L300.37 574.428C316.56 579.409 350.73 571.638 352.18 571.308L352.57 571.218V570.817L351.04 456.699C355.88 454.179 372.4 443.447 376.56 440.747C375.51 448.968 375.88 464.17 375.88 464.33L384.67 579.839L384.66 579.829ZM437.12 578.829H385.58L376.87 464.27C376.87 464.13 376.47 447.578 377.7 439.796L377.88 438.686L376.94 439.306C376.72 439.446 355.24 453.489 350.32 455.949L350.04 456.089V456.399L351.57 570.417C347.68 571.278 316.16 577.989 301.01 573.568L295.19 449.268C295.15 448.918 291.35 417.993 315.01 398.4L358.87 361.564L472.44 361.174C473.5 365.594 482.82 407.761 459.84 432.275L435.3 456.729C433.26 458.769 432.16 461.59 432.28 464.47L437.14 578.829H437.12Z" fill="#002346"/>
<path d="M407.009 224.482L453.439 234.814C453.439 234.814 475.109 235.234 481.779 258.578L489.579 310.066L468.029 326.949L448.699 347.762H325.439L332.139 266.499C332.139 266.499 338.399 243.866 381.539 234.134L407.009 224.482Z" fill="#0047FF"/>
<path d="M324.899 348.262H448.919L468.399 327.289L490.119 310.276L482.279 258.498C475.569 235.004 453.679 234.314 453.459 234.304L406.979 223.952L381.369 233.654C338.499 243.315 331.729 266.129 331.669 266.349L324.909 348.242L324.899 348.262ZM448.479 347.262H325.979L332.639 266.539C332.689 266.409 339.359 244.165 381.649 234.624L407.049 225.002L453.329 235.304C453.639 235.324 474.809 236.014 481.299 258.718L489.039 309.856L467.719 326.559L448.479 347.262Z" fill="#002346"/>
<path d="M358.06 348.011C358.06 348.011 358.09 348.011 358.1 348.011C358.38 347.991 358.58 347.741 358.55 347.471L351.85 272.039C351.83 271.759 351.57 271.559 351.31 271.589C351.03 271.609 350.83 271.859 350.86 272.129L357.56 347.561C357.58 347.821 357.8 348.021 358.06 348.021V348.011Z" fill="#002346"/>
<path d="M216.369 226.642H335.459C341.247 226.642 345.939 231.334 345.939 237.123V312.465C345.939 318.254 341.247 322.947 335.459 322.947H216.369C210.581 322.947 205.889 318.254 205.889 312.465V237.123C205.889 231.334 210.581 226.642 216.369 226.642Z" fill="#F1F2F2"/>
<path d="M216.369 323.447H335.459C341.509 323.447 346.439 318.516 346.439 312.465V237.123C346.439 231.072 341.509 226.142 335.459 226.142H216.369C210.319 226.142 205.389 231.072 205.389 237.123V312.465C205.389 318.516 210.319 323.447 216.369 323.447ZM335.459 227.142C340.959 227.142 345.439 231.622 345.439 237.123V312.465C345.439 317.966 340.959 322.447 335.459 322.447H216.369C210.869 322.447 206.389 317.966 206.389 312.465V237.123C206.389 231.622 210.869 227.142 216.369 227.142H335.459Z" fill="#002346"/>
<path d="M268.25 207.62C268.29 208.05 268.48 208.46 268.79 208.77C269.09 209.08 269.49 209.28 269.92 209.35L283 211.22C283 211.22 278.83 212.05 278.83 214.551C278.83 214.551 278.94 217.241 280.5 217.891C279.52 219.612 279.68 221.762 280.92 223.312C280.92 223.312 279.85 225.993 281.42 226.733L310.93 226.643C310.93 226.643 300.93 207.88 284.67 205.799L270.67 205.449H270.23C269.13 205.449 268.24 206.359 268.24 207.46C268.24 207.51 268.24 207.56 268.24 207.62H268.25Z" fill="#F2B3C1"/>
<path d="M281.31 227.233L311.76 227.143L311.37 226.412C311.27 226.222 301.06 207.399 284.73 205.309L270.23 204.959C268.85 204.959 267.73 206.099 267.74 207.479C267.74 207.539 267.74 207.609 267.74 207.669C267.79 208.23 268.04 208.74 268.42 209.13C268.8 209.52 269.3 209.77 269.83 209.85L280.84 211.42C279.62 211.99 278.31 212.98 278.31 214.551C278.31 214.681 278.43 217.071 279.82 218.091C279.03 219.831 279.22 221.842 280.34 223.402C279.93 224.602 279.73 226.502 281.19 227.193L281.29 227.243L281.31 227.233ZM310.07 226.142L281.54 226.232C280.57 225.632 281.37 223.522 281.38 223.502L281.49 223.232L281.31 223.002C280.19 221.602 280.05 219.691 280.93 218.141L281.21 217.651L280.69 217.431C279.46 216.921 279.33 214.561 279.33 214.531C279.33 212.52 283.06 211.72 283.1 211.71L285.97 211.14L269.99 208.86C269.67 208.81 269.37 208.66 269.15 208.43C268.93 208.2 268.78 207.899 268.75 207.589V207.469C268.75 206.639 269.41 205.959 270.24 205.959H270.68L284.67 206.309C298.62 208.099 308.03 222.692 310.08 226.152L310.07 226.142Z" fill="#002346"/>
<path d="M296.44 227.232C296.7 227.232 296.93 227.022 296.94 226.752C296.95 226.472 296.74 226.242 296.47 226.232C290.3 225.922 288.8 224.622 288.79 224.612L282.53 218.371C282.34 218.181 282.02 218.171 281.82 218.371C281.63 218.571 281.63 218.881 281.82 219.081L288.09 225.332C288.25 225.492 289.84 226.902 296.42 227.242C296.42 227.242 296.44 227.242 296.45 227.242L296.44 227.232Z" fill="#002346"/>
<path d="M379.7 218.721V236.024C379.7 243.505 385.77 249.576 393.25 249.576C400.73 249.576 406.8 243.505 406.8 236.024V209.55L402.4 207.699L379.7 218.721Z" fill="#F2B3C1"/>
<path d="M393.25 250.076C401 250.076 407.3 243.775 407.3 236.024V209.22L402.39 207.149L379.2 218.411V236.024C379.2 243.775 385.5 250.076 393.25 250.076ZM406.3 209.88V236.024C406.3 243.225 400.45 249.076 393.25 249.076C386.05 249.076 380.2 243.225 380.2 236.024V219.031L402.41 208.25L406.29 209.88H406.3Z" fill="#002346"/>
<path d="M369.699 202.468C365.557 202.468 362.199 197.709 362.199 191.837C362.199 185.965 365.557 181.205 369.699 181.205C373.841 181.205 377.199 185.965 377.199 191.837C377.199 197.709 373.841 202.468 369.699 202.468Z" fill="#0047FF"/>
<path d="M369.699 202.969C374.109 202.969 377.699 197.978 377.699 191.837C377.699 185.696 374.109 180.705 369.699 180.705C365.289 180.705 361.699 185.696 361.699 191.837C361.699 197.978 365.289 202.969 369.699 202.969ZM369.699 181.705C373.559 181.705 376.699 186.246 376.699 191.837C376.699 197.428 373.559 201.968 369.699 201.968C365.839 201.968 362.699 197.428 362.699 191.837C362.699 186.246 365.839 181.705 369.699 181.705Z" fill="#002346"/>
<path d="M370.529 200.348C367.536 200.348 365.109 196.909 365.109 192.667C365.109 188.424 367.536 184.985 370.529 184.985C373.523 184.985 375.949 188.424 375.949 192.667C375.949 196.909 373.523 200.348 370.529 200.348Z" fill="#F1F2F2"/>
<path d="M370.529 200.848C373.789 200.848 376.449 197.177 376.449 192.667C376.449 188.156 373.789 184.485 370.529 184.485C367.269 184.485 364.609 188.156 364.609 192.667C364.609 197.177 367.269 200.848 370.529 200.848ZM370.529 185.486C373.239 185.486 375.449 188.706 375.449 192.667C375.449 196.627 373.239 199.848 370.529 199.848C367.819 199.848 365.609 196.627 365.609 192.667C365.609 188.706 367.819 185.486 370.529 185.486Z" fill="#002346"/>
<path d="M396.53 170.573C386.5 166.832 375.34 171.923 371.6 181.955L365.62 197.967C361.88 207.999 366.97 219.161 377 222.901C387.03 226.642 398.19 221.551 401.93 211.519L407.91 195.507C411.65 185.475 406.56 174.313 396.53 170.573Z" fill="#F2B3C1"/>
<path d="M383.75 224.632C391.81 224.632 399.41 219.691 402.4 211.7L408.38 195.687C412.21 185.416 406.98 173.944 396.71 170.103C386.44 166.263 374.97 171.503 371.13 181.775L365.15 197.788C361.32 208.059 366.55 219.531 376.82 223.372C379.1 224.222 381.45 224.632 383.75 224.632ZM389.74 169.843C391.97 169.843 394.2 170.243 396.35 171.043C401.07 172.804 404.83 176.304 406.92 180.895C409.01 185.486 409.2 190.617 407.43 195.337L401.45 211.35C399.69 216.071 396.19 219.831 391.6 221.922C387.01 224.012 381.88 224.192 377.16 222.432C372.44 220.671 368.68 217.171 366.59 212.58C364.5 207.989 364.31 202.858 366.08 198.138L372.06 182.125C373.82 177.404 377.32 173.644 381.91 171.553C384.41 170.413 387.07 169.843 389.74 169.843Z" fill="#002346"/>
<path d="M416.071 203.948C416.071 203.948 426.651 191.066 419.071 173.063C418.441 171.513 417.341 170.183 415.931 169.273C414.071 167.972 411.611 167.912 409.681 169.113C409.681 169.113 409.681 168.883 409.591 168.503C408.461 162.102 402.361 157.841 395.961 158.971C395.891 158.981 395.811 159.001 395.741 159.011C390.361 159.981 384.861 160.091 379.441 159.341C378.531 159.221 377.631 159.031 376.751 158.781C373.621 157.921 363.341 156.131 362.641 169.903C362.641 169.903 360.191 177.154 371.211 182.495L372.881 178.954C373.771 177.414 374.901 176.034 376.231 174.854C376.231 174.854 387.641 184.495 401.821 181.995L403.421 186.996L416.071 203.948Z" fill="#002346"/>
<path d="M416.06 204.758L416.47 204.268C416.58 204.138 427.15 190.946 419.54 172.873C418.87 171.223 417.71 169.833 416.21 168.853C414.4 167.592 412.05 167.412 410.08 168.333C409.51 165.162 407.72 162.372 405.05 160.501C402.37 158.621 399.11 157.901 395.89 158.471L395.66 158.511C390.33 159.471 384.9 159.581 379.53 158.841C378.65 158.721 377.77 158.541 376.91 158.291C375.02 157.771 370.24 156.851 366.62 159.461C363.92 161.411 362.42 164.892 362.16 169.813C361.93 170.633 360.33 177.764 371.01 182.935L371.46 183.155L373.35 179.154C374.13 177.814 375.11 176.574 376.27 175.494C378.28 177.044 388.81 184.575 401.49 182.545L403.03 187.276L416.06 204.738V204.758ZM412.69 168.753C413.73 168.753 414.76 169.063 415.65 169.683C416.99 170.553 418.01 171.783 418.61 173.253C425.14 188.766 417.88 200.548 416.07 203.108L403.87 186.766L402.16 181.425L401.73 181.505C387.95 183.935 376.66 174.564 376.55 174.474L376.22 174.194L375.9 174.484C374.53 175.704 373.36 177.124 372.45 178.704L370.98 181.825C361.04 176.784 363.03 170.343 363.12 170.063L363.14 169.933C363.38 165.302 364.74 162.052 367.19 160.281C370.45 157.921 374.87 158.791 376.62 159.271C377.52 159.531 378.45 159.721 379.38 159.841C384.86 160.601 390.39 160.491 395.84 159.511L396.06 159.471C399.02 158.951 402.01 159.611 404.47 161.331C406.93 163.052 408.58 165.632 409.1 168.603C409.18 168.943 409.18 169.133 409.18 169.133V170.023L409.94 169.563C410.78 169.043 411.73 168.783 412.68 168.783L412.69 168.753Z" fill="#002346"/>
<path d="M407.44 200.348H401.44C402.02 201.428 403.15 203.938 402.93 207.239C402.77 209.609 401.98 211.419 401.44 212.44H407.44C410.75 212.44 413.44 209.749 413.44 206.439C413.49 203.128 410.84 200.398 407.53 200.348C407.5 200.348 407.47 200.348 407.44 200.348Z" fill="#F2B3C1"/>
<path d="M400.61 212.94H407.44C411.02 212.94 413.94 210.019 413.94 206.439C413.99 202.858 411.12 199.898 407.54 199.848H400.61L401 200.578C401.76 202.008 402.63 204.328 402.44 207.199C402.32 208.949 401.84 210.629 401 212.2L400.61 212.94ZM407.44 200.348L407.52 200.848C408.99 200.868 410.36 201.458 411.39 202.518C412.41 203.568 412.96 204.958 412.94 206.429C412.94 209.469 410.47 211.94 407.44 211.94H402.25C402.93 210.459 403.33 208.889 403.44 207.269C403.61 204.608 402.96 202.398 402.25 200.848H407.45V200.348H407.44Z" fill="#002346"/>
<path d="M408.88 188.286C408.88 188.286 411.43 167.283 395.78 159.012L392.23 159.622C392.23 159.622 404.23 171.744 401.35 187.936L408.88 188.286Z" fill="#0047FF"/>
<path d="M409.32 188.806L409.38 188.346C409.41 188.136 411.79 166.903 396.02 158.571L395.87 158.491L391.21 159.291L391.88 159.971C392 160.091 403.66 172.103 400.86 187.846L400.76 188.406L409.32 188.806ZM395.7 159.531C409.44 166.923 408.68 184.675 408.43 187.766L401.94 187.466C404.12 173.654 395.64 162.752 393.22 159.961L395.7 159.531Z" fill="#002346"/>
<path d="M404.71 210.39C400.104 210.39 396.37 205.07 396.37 198.508C396.37 191.946 400.104 186.626 404.71 186.626C409.316 186.626 413.05 191.946 413.05 198.508C413.05 205.07 409.316 210.39 404.71 210.39Z" fill="#F1F2F2"/>
<path d="M404.71 210.89C409.58 210.89 413.55 205.339 413.55 198.508C413.55 191.677 409.58 186.126 404.71 186.126C399.84 186.126 395.87 191.677 395.87 198.508C395.87 205.339 399.84 210.89 404.71 210.89ZM404.71 187.126C409.03 187.126 412.55 192.227 412.55 198.508C412.55 204.789 409.03 209.89 404.71 209.89C400.39 209.89 396.87 204.789 396.87 198.508C396.87 192.227 400.39 187.126 404.71 187.126Z" fill="#002346"/>
<path d="M408.88 208.719C404.274 208.719 400.54 204.147 400.54 198.508C400.54 192.868 404.274 188.296 408.88 188.296C413.486 188.296 417.22 192.868 417.22 198.508C417.22 204.147 413.486 208.719 408.88 208.719Z" fill="#0047FF"/>
<path d="M408.88 209.219C413.76 209.219 417.72 204.419 417.72 198.508C417.72 192.597 413.75 187.796 408.88 187.796C404.01 187.796 400.04 192.597 400.04 198.508C400.04 204.419 404.01 209.219 408.88 209.219ZM408.88 188.796C413.2 188.796 416.72 193.157 416.72 198.508C416.72 203.858 413.2 208.219 408.88 208.219C404.56 208.219 401.04 203.858 401.04 198.508C401.04 193.157 404.56 188.796 408.88 188.796Z" fill="#002346"/>
<path d="M460.78 351.292C443.632 351.292 429.73 337.483 429.73 320.448C429.73 303.412 443.632 289.603 460.78 289.603C477.929 289.603 491.83 303.412 491.83 320.448C491.83 337.483 477.929 351.292 460.78 351.292Z" fill="#0047FF"/>
<path d="M460.78 351.793C478.18 351.793 492.33 337.73 492.33 320.448C492.33 303.165 478.18 289.103 460.78 289.103C443.38 289.103 429.23 303.165 429.23 320.448C429.23 337.73 443.38 351.793 460.78 351.793ZM460.78 290.103C477.63 290.103 491.33 303.715 491.33 320.448C491.33 337.18 477.63 350.792 460.78 350.792C443.93 350.792 430.23 337.18 430.23 320.448C430.23 303.715 443.93 290.103 460.78 290.103Z" fill="#002346"/>
<path d="M212.259 226.642H324.569C332.23 226.642 338.439 232.852 338.439 240.514V309.075C338.439 316.736 332.23 322.947 324.569 322.947H212.259C204.599 322.947 198.389 316.736 198.389 309.075V240.514C198.389 232.852 204.599 226.642 212.259 226.642Z" fill="white"/>
<path d="M212.269 323.447H324.579C332.499 323.447 338.949 316.996 338.949 309.075V240.514C338.949 232.593 332.499 226.142 324.579 226.142H212.269C204.349 226.142 197.899 232.593 197.899 240.514V309.075C197.899 316.996 204.349 323.447 212.269 323.447ZM324.579 227.142C331.949 227.142 337.949 233.143 337.949 240.514V309.075C337.949 316.446 331.949 322.447 324.579 322.447H212.269C204.899 322.447 198.899 316.446 198.899 309.075V240.514C198.899 233.143 204.899 227.142 212.269 227.142H324.579Z" fill="#002346"/>
<path d="M241.939 236.233H241.949C243.904 236.233 245.489 237.819 245.489 239.774V253.956C245.489 255.912 243.904 257.497 241.949 257.497H241.939C239.984 257.497 238.399 255.912 238.399 253.956V239.774C238.399 237.819 239.984 236.233 241.939 236.233Z" fill="#0047FF"/>
<path d="M241.939 257.997C244.179 257.997 245.989 256.187 245.989 253.956V239.774C245.989 237.544 244.179 235.733 241.949 235.733C239.719 235.733 237.909 237.544 237.909 239.774V253.956C237.909 256.187 239.719 257.997 241.949 257.997H241.939ZM241.939 236.734C243.619 236.734 244.979 238.094 244.979 239.774V253.956C244.979 255.637 243.619 256.997 241.939 256.997C240.259 256.997 238.889 255.637 238.889 253.956V239.774C238.889 238.094 240.249 236.734 241.929 236.734H241.939Z" fill="#002346"/>
<path d="M231.1 236.233H231.11C233.065 236.233 234.65 237.819 234.65 239.774V253.956C234.65 255.912 233.065 257.497 231.11 257.497H231.1C229.145 257.497 227.56 255.912 227.56 253.956V239.774C227.56 237.819 229.145 236.233 231.1 236.233Z" fill="#0047FF"/>
<path d="M231.11 257.997C233.35 257.997 235.16 256.187 235.16 253.956V239.774C235.16 237.544 233.35 235.733 231.12 235.733C228.89 235.733 227.08 237.544 227.08 239.774V253.956C227.08 256.187 228.89 257.997 231.12 257.997H231.11ZM231.11 236.734C232.79 236.734 234.15 238.094 234.15 239.774V253.956C234.15 255.637 232.79 256.997 231.11 256.997C229.43 256.997 228.06 255.637 228.06 253.956V239.774C228.06 238.094 229.42 236.734 231.1 236.734H231.11Z" fill="#002346"/>
<path d="M219.85 236.233H219.86C221.815 236.233 223.4 237.819 223.4 239.774V253.956C223.4 255.912 221.815 257.497 219.86 257.497H219.85C217.895 257.497 216.31 255.912 216.31 253.956V239.774C216.31 237.819 217.895 236.233 219.85 236.233Z" fill="#0047FF"/>
<path d="M219.86 257.997C222.1 257.997 223.91 256.187 223.91 253.956V239.774C223.91 237.544 222.1 235.733 219.87 235.733C217.64 235.733 215.83 237.544 215.83 239.774V253.956C215.83 256.187 217.64 257.997 219.87 257.997H219.86ZM219.86 236.734C221.54 236.734 222.9 238.094 222.9 239.774V253.956C222.9 255.637 221.54 256.997 219.86 256.997C218.18 256.997 216.81 255.637 216.81 253.956V239.774C216.81 238.094 218.17 236.734 219.85 236.734H219.86Z" fill="#002346"/>
<path d="M283.439 274.59L267.599 342.951H315.919C317.309 342.951 318.429 344.061 318.439 345.451C318.439 345.451 318.439 345.461 318.439 345.471C318.439 346.861 317.319 347.982 315.929 347.982H245.439C242.069 347.992 239.329 345.271 239.309 341.911C239.309 341.491 239.349 341.071 239.439 340.65L252.939 275L283.439 274.59Z" fill="#0047FF"/>
<path d="M245.419 348.482H315.939C317.599 348.482 318.949 347.132 318.949 345.472C318.949 343.791 317.589 342.451 315.939 342.451H268.239L284.079 274.08L252.539 274.5L238.959 340.541C238.869 340.991 238.819 341.441 238.829 341.901C238.829 343.661 239.529 345.322 240.779 346.562C242.029 347.792 243.669 348.472 245.429 348.472L245.419 348.482ZM315.929 343.451C317.039 343.451 317.939 344.351 317.939 345.452C317.939 346.582 317.039 347.482 315.929 347.482H245.419C243.929 347.482 242.529 346.902 241.479 345.862C240.419 344.811 239.829 343.401 239.819 341.911C239.819 341.521 239.859 341.141 239.929 340.761L253.349 275.5L282.809 275.1L266.969 343.451H315.929Z" fill="#002346"/>
<path d="M283.43 275.059L283.77 322.777L272.39 323.117L283.32 275.039C283.33 274.979 283.43 274.989 283.43 275.049V275.059Z" fill="#F1F2F2"/>
<path d="M271.75 323.648L284.27 323.278L283.92 274.62L282.99 274.47L282.83 274.94L271.75 323.648ZM283.26 322.307L273.01 322.617L282.95 278.91L283.26 322.307Z" fill="#002346"/>
<path d="M437.219 129.826H472.129C474.929 129.826 477.199 132.097 477.199 134.897V149.829C477.199 152.63 474.929 154.9 472.129 154.9H448.249L433.699 166.342L442.119 154.9H437.219C434.419 154.9 432.149 152.63 432.149 149.829V134.897C432.149 132.097 434.419 129.826 437.219 129.826Z" fill="#0047FF"/>
<path d="M431.119 169.003L448.429 155.391H472.129C475.199 155.391 477.699 152.89 477.699 149.82V134.887C477.699 131.817 475.199 129.316 472.129 129.316H437.219C434.149 129.316 431.649 131.817 431.649 134.887V149.82C431.649 152.89 434.149 155.391 437.219 155.391H441.129L431.119 169.003ZM472.129 130.317C474.649 130.317 476.699 132.367 476.699 134.887V149.82C476.699 152.34 474.649 154.39 472.129 154.39H448.079L436.279 163.662L443.099 154.39H437.219C434.699 154.39 432.649 152.34 432.649 149.82V134.887C432.649 132.367 434.699 130.317 437.219 130.317H472.129Z" fill="#002346"/>
<path d="M441.339 142.328C441.339 141.248 440.469 140.378 439.389 140.378C438.309 140.378 437.429 141.268 437.439 142.348C437.439 143.428 438.329 144.309 439.409 144.299C440.489 144.289 441.369 143.408 441.359 142.328H441.329H441.339Z" fill="#F1F2F2"/>
<path d="M439.399 144.809H439.419C440.779 144.809 441.869 143.689 441.869 142.328V141.828H441.789C441.559 140.718 440.569 139.878 439.389 139.878C438.729 139.878 438.109 140.138 437.649 140.608C437.189 141.078 436.939 141.698 436.939 142.358C436.939 143.018 437.199 143.629 437.669 144.099C438.129 144.559 438.749 144.809 439.399 144.809ZM440.839 142.628C440.709 143.298 440.119 143.809 439.419 143.809H439.409C439.019 143.809 438.659 143.659 438.379 143.388C438.099 143.118 437.949 142.748 437.949 142.358C437.949 141.968 438.099 141.598 438.369 141.318C438.639 141.038 439.009 140.888 439.399 140.878C440.199 140.878 440.849 141.528 440.849 142.328V142.618L440.839 142.628Z" fill="#002346"/>
<path d="M451.53 142.328C451.53 141.248 450.66 140.378 449.58 140.378C448.5 140.378 447.62 141.268 447.63 142.348C447.63 143.428 448.52 144.309 449.6 144.299C450.68 144.299 451.56 143.408 451.55 142.328H451.52H451.53Z" fill="#F1F2F2"/>
<path d="M449.59 144.809H449.61C450.97 144.809 452.06 143.689 452.06 142.328V141.828H451.98C451.75 140.718 450.76 139.878 449.58 139.878C448.92 139.878 448.3 140.138 447.84 140.608C447.38 141.078 447.13 141.698 447.13 142.358C447.13 143.018 447.39 143.629 447.86 144.099C448.32 144.559 448.94 144.809 449.59 144.809ZM451.03 142.628C450.9 143.298 450.31 143.809 449.61 143.809C449.24 143.789 448.85 143.659 448.57 143.388C448.29 143.118 448.14 142.748 448.14 142.358C448.14 141.968 448.29 141.598 448.56 141.318C448.83 141.038 449.2 140.888 449.59 140.878C450.39 140.878 451.04 141.528 451.04 142.328V142.618L451.03 142.628Z" fill="#002346"/>
<path d="M461.719 142.328C461.719 141.248 460.849 140.378 459.769 140.378C458.689 140.378 457.809 141.268 457.819 142.348C457.829 143.428 458.709 144.309 459.789 144.299C460.869 144.299 461.749 143.408 461.739 142.328H461.709H461.719Z" fill="#F1F2F2"/>
<path d="M459.789 144.809H459.809C461.169 144.809 462.259 143.689 462.259 142.328V141.828H462.179C461.949 140.718 460.959 139.878 459.779 139.878C459.119 139.878 458.499 140.138 458.039 140.608C457.579 141.078 457.329 141.698 457.329 142.358C457.329 143.018 457.589 143.629 458.059 144.099C458.519 144.559 459.139 144.809 459.789 144.809ZM461.229 142.628C461.099 143.298 460.509 143.809 459.809 143.809C459.409 143.789 459.049 143.659 458.769 143.388C458.489 143.118 458.339 142.748 458.339 142.358C458.339 141.968 458.489 141.598 458.759 141.318C459.029 141.038 459.399 140.888 459.789 140.878C460.589 140.878 461.239 141.528 461.239 142.328V142.618L461.229 142.628Z" fill="#002346"/>
<path d="M471.91 142.328C471.91 141.248 471.04 140.378 469.96 140.378C468.88 140.378 468 141.268 468.01 142.348C468.02 143.428 468.9 144.309 469.98 144.299C471.06 144.299 471.94 143.408 471.93 142.328H471.9H471.91Z" fill="#F1F2F2"/>
<path d="M469.979 144.809H469.999C471.359 144.809 472.449 143.689 472.449 142.328V141.828H472.369C472.139 140.718 471.149 139.878 469.969 139.878C469.309 139.878 468.689 140.138 468.229 140.608C467.769 141.078 467.519 141.698 467.519 142.358C467.519 143.018 467.779 143.629 468.249 144.099C468.709 144.559 469.329 144.809 469.979 144.809ZM471.419 142.628C471.289 143.298 470.699 143.809 469.999 143.809C469.659 143.789 469.239 143.659 468.959 143.388C468.679 143.118 468.529 142.748 468.529 142.358C468.529 141.968 468.679 141.598 468.949 141.318C469.219 141.038 469.589 140.888 469.979 140.878C470.779 140.878 471.429 141.528 471.429 142.328V142.618L471.419 142.628Z" fill="#002346"/>
<path d="M446.32 293.342C446.32 293.342 446.34 293.342 446.35 293.342C446.63 293.322 446.84 293.092 446.82 292.812L444.82 257.047C444.8 256.777 444.58 256.567 444.29 256.577C444.01 256.597 443.8 256.827 443.82 257.107L445.82 292.872C445.83 293.142 446.06 293.342 446.32 293.342Z" fill="#002346"/>
<path d="M377.199 440.177C377.199 440.177 377.199 440.177 377.209 440.177C377.489 440.177 377.699 439.937 377.699 439.667C377.699 439.527 377.439 425.284 388.049 407.832L410.559 370.726C410.699 370.486 410.629 370.185 410.389 370.035C410.149 369.895 409.849 369.965 409.699 370.205L387.189 407.311C376.419 425.034 376.689 439.547 376.699 439.687C376.699 439.957 376.929 440.177 377.199 440.177Z" fill="#002346"/>
<path d="M291.939 215.741C292.019 215.741 292.089 215.721 292.159 215.691C292.409 215.571 292.509 215.27 292.379 215.02C290.269 210.79 283.289 210.72 282.999 210.72C282.719 210.72 282.499 210.94 282.499 211.22C282.499 211.5 282.719 211.72 282.999 211.72C283.069 211.72 289.649 211.79 291.489 215.46C291.579 215.641 291.749 215.741 291.939 215.741Z" fill="#002346"/>
<path d="M241.459 185.555C241.459 185.555 241.499 185.555 241.519 185.555L274.799 181.315C275.069 181.275 275.269 181.025 275.229 180.754C275.189 180.484 274.939 180.294 274.669 180.324L241.759 184.515L228.689 155.51C228.569 155.26 228.279 155.15 228.029 155.26C227.779 155.37 227.669 155.67 227.779 155.92L240.999 185.265C241.079 185.445 241.259 185.555 241.459 185.555Z" fill="#002346"/>
<path d="M226.389 154.541L229.669 158.221C229.779 158.341 229.939 158.401 230.099 158.381C230.359 158.341 230.549 158.101 230.519 157.841L230.039 153.481L235.719 153.921C235.889 153.941 236.049 153.861 236.139 153.711C236.269 153.501 236.199 153.231 235.999 153.1L230.589 149.67L226.399 154.541H226.389Z" fill="#F1F2F2"/>
<path d="M230.049 158.881C230.049 158.881 230.129 158.881 230.169 158.881C230.709 158.801 231.089 158.331 231.029 157.791L230.619 154.03L235.699 154.42C236.049 154.46 236.409 154.28 236.589 153.96C236.719 153.76 236.759 153.5 236.699 153.26C236.639 153.02 236.489 152.81 236.279 152.68L230.499 149.02L225.739 154.55L229.309 158.561C229.499 158.771 229.769 158.891 230.049 158.891V158.881ZM229.489 152.93L230.039 157.891L227.069 154.53L230.689 150.32L235.549 153.4L229.489 152.93Z" fill="#002346"/>
<path d="M170.91 144.889C166.98 158.631 175.26 174.274 190.83 174.084C206.4 173.894 213.26 158.961 221.83 156.911C230.4 154.861 232.7 150.49 230.66 146.279C228.62 142.069 223.12 142.079 211.87 145.719C202.39 148.77 190.43 149.01 185.53 146.279C176.65 141.338 173.44 126.336 173.44 126.336C162.13 123.005 154.64 128.156 154.64 128.156C161.56 132.057 167.2 137.868 170.91 144.889Z" fill="white"/>
<path d="M190.56 174.583C190.65 174.583 190.75 174.583 190.84 174.583C200.53 174.463 206.78 168.862 212.3 163.922C215.75 160.831 218.73 158.171 221.95 157.401C226.82 156.24 230.05 154.23 231.3 151.6C232.11 149.889 232.05 147.979 231.12 146.059C228.98 141.648 223.54 141.418 211.73 145.239C202.45 148.229 190.57 148.499 185.79 145.839C177.21 141.068 173.98 126.376 173.95 126.226L173.89 125.935L173.6 125.855C162.19 122.495 154.69 127.526 154.38 127.746L153.72 128.196L154.42 128.586C161.21 132.417 166.73 138.067 170.4 144.939C168.32 152.44 169.81 160.731 174.3 166.612C178.23 171.753 184 174.573 190.58 174.573L190.56 174.583ZM224.4 143.538C227.45 143.538 229.26 144.518 230.21 146.499C231 148.129 231.06 149.749 230.39 151.17C229.28 153.52 226.28 155.33 221.72 156.42C218.25 157.251 215.19 159.991 211.64 163.171C206.25 167.992 200.14 173.463 190.83 173.573C190.74 173.573 190.65 173.573 190.56 173.573C184.3 173.573 178.81 170.893 175.07 166.002C170.73 160.311 169.32 152.27 171.39 145.019L171.45 144.829L171.36 144.648C167.74 137.777 162.31 132.096 155.64 128.146C157.72 127.036 164.18 124.225 173.02 126.726C173.53 128.926 176.9 142.038 185.29 146.709C190.36 149.529 202.35 149.299 212.03 146.189C217.5 144.418 221.51 143.528 224.4 143.528V143.538Z" fill="#002346"/>
<path d="M225.619 148.34C225.189 148.39 224.879 148.78 224.929 149.2C224.969 149.56 225.259 149.85 225.619 149.89C226.049 149.84 226.359 149.45 226.309 149.03C226.269 148.67 225.979 148.38 225.619 148.34Z" fill="#002346"/>
<path d="M185.44 149.169C173.71 148.169 135.78 117.924 134.32 121.485C132.86 125.045 140.05 130.326 140.05 130.326C140.05 130.326 134.28 127.926 135.31 131.876C136.34 135.827 144.24 142.538 144.24 142.538C144.24 142.538 138.18 139.998 139.3 144.148C140.42 148.299 150.44 153.62 150.44 153.62C150.44 153.62 140.96 150.699 149.2 157.05C157.44 163.401 177.95 164.191 187.2 161.691C196.45 159.191 197.19 150.109 185.44 149.169Z" fill="white"/>
<path d="M174.89 163.492C179.72 163.492 184.17 163.022 187.34 162.172C192.04 160.901 194.99 157.861 194.69 154.61C194.46 152.07 191.92 149.179 185.49 148.669C179.18 148.129 164.73 138.698 153.12 131.117C142.41 124.125 136.27 120.195 134.47 120.755C134.18 120.845 133.97 121.035 133.86 121.295C132.77 123.945 135.79 127.276 137.9 129.186C136.94 129.036 135.91 129.056 135.28 129.596C134.7 130.096 134.55 130.907 134.84 131.997C135.6 134.917 139.82 139.158 142.24 141.398C141.17 141.188 139.97 141.158 139.27 141.778C138.68 142.298 138.53 143.139 138.83 144.269C139.62 147.189 144.37 150.53 147.48 152.46C146.54 152.38 145.73 152.51 145.45 153.05C145.12 153.69 145.31 154.66 148.91 157.431C154.41 161.661 165.38 163.482 174.9 163.482L174.89 163.492ZM135 121.625C136.77 121.625 145.14 127.096 152.57 131.947C164.89 139.988 178.85 149.099 185.4 149.66C191.21 150.12 193.49 152.57 193.68 154.7C193.93 157.411 191.21 160.081 187.06 161.201C177.84 163.692 157.56 162.862 149.5 156.651C146.38 154.24 146.32 153.56 146.33 153.49C146.6 153.29 148.51 153.55 150.29 154.1L150.67 153.18C150.57 153.13 140.83 147.909 139.78 144.019C139.58 143.289 139.63 142.788 139.91 142.538C140.66 141.888 143.02 142.568 144.05 142.998L147.03 144.249L144.57 142.158C144.49 142.088 136.78 135.507 135.8 131.757C135.62 131.067 135.67 130.596 135.93 130.366C136.64 129.756 138.88 130.386 139.86 130.797L143.68 132.377L140.35 129.926C138.44 128.516 133.71 124.295 134.79 121.675C134.84 121.645 134.91 121.635 135 121.635V121.625Z" fill="#002346"/>
<path d="M147.779 59.9355C147.869 59.9355 147.959 59.9155 148.039 59.8655C148.189 59.7755 148.279 59.6155 148.279 59.4354L148.139 33.7413C148.139 33.4612 147.919 33.2412 147.639 33.2412C147.359 33.2412 147.139 33.4712 147.139 33.7413L147.269 58.6053L130.859 49.8739C130.619 49.7439 130.309 49.8339 130.179 50.0839C130.049 50.324 130.139 50.634 130.389 50.764L147.539 59.8955C147.609 59.9355 147.689 59.9555 147.769 59.9555L147.779 59.9355Z" fill="#002346"/>
<path d="M396.85 337.35H338.42C334.12 337.35 330.63 340.84 330.63 345.141V347.351H404.63V345.141C404.63 340.84 401.14 337.35 396.84 337.35H396.85Z" fill="#F1F2F2"/>
<path d="M330.13 347.851H405.13V345.141C405.13 340.57 401.41 336.85 396.84 336.85H338.41C333.84 336.85 330.12 340.57 330.12 345.141V347.851H330.13ZM404.13 346.851H331.13V345.141C331.13 341.12 334.4 337.85 338.42 337.85H396.85C400.87 337.85 404.14 341.12 404.14 345.141V346.851H404.13Z" fill="#002346"/>
<path d="M400.56 323.997C400.56 323.997 472.25 363.194 480.56 326.498C480.56 326.498 487.65 298.153 456.39 298.153C456.39 298.153 432.63 297.733 398.03 304.824L362.62 312.135C359.39 312.805 356.5 314.576 354.43 317.136L338.94 336.139C338.33 336.899 338.44 338 339.2 338.62C339.28 338.68 339.36 338.74 339.44 338.78C340.1 339.16 340.94 339.07 341.5 338.55L358.88 322.757L355.77 331.048C355.13 332.709 355.29 334.579 356.22 336.099C357.22 337.66 359.09 339.02 362.63 338.19C362.63 338.19 365.13 340.69 369.3 338.19C369.3 338.19 372.81 340.29 381.45 340.64C382 340.73 382.51 340.35 382.59 339.81C382.65 339.44 382.49 339.06 382.19 338.84C380.59 337.319 378.07 335.429 375.55 335.679L378.05 329.848C378.05 329.848 394.73 332.339 400.56 323.997Z" fill="#F2B3C1"/>
<path d="M457.55 342.701C462.26 342.701 466.62 342 470.33 340.33C475.96 337.79 479.56 333.169 481.05 326.598C481.17 326.108 484.04 314.246 477.42 305.765C473.21 300.374 466.14 297.643 456.39 297.643C456.15 297.643 432.19 297.303 397.93 304.324L362.52 311.636C359.19 312.326 356.18 314.166 354.04 316.816L338.55 335.819C338.17 336.29 337.99 336.88 338.06 337.48C338.12 338.08 338.42 338.62 338.88 339C338.98 339.08 339.08 339.15 339.19 339.21C340.04 339.7 341.11 339.58 341.84 338.91L357.69 324.508L355.31 330.859C354.62 332.649 354.8 334.699 355.8 336.35C356.78 337.89 358.74 339.52 362.51 338.72C363.24 339.28 365.72 340.78 369.32 338.75C370.3 339.24 373.98 340.83 381.44 341.13C382.21 341.25 382.97 340.69 383.1 339.88C383.19 339.32 382.96 338.76 382.49 338.43C380.98 336.99 378.7 335.299 376.32 335.159L378.37 330.389C380.94 330.719 395.02 332.119 400.72 324.638C404.75 326.808 435.1 342.701 457.56 342.701H457.55ZM455.73 298.643C456.14 298.643 456.36 298.643 456.38 298.643C465.81 298.643 472.62 301.244 476.63 306.385C482.95 314.486 480.11 326.248 480.08 326.368C478.66 332.629 475.25 337.01 469.92 339.42C448.21 349.212 401.28 323.807 400.8 323.557L400.41 323.347L400.15 323.717C394.57 331.709 378.29 329.388 378.12 329.358L377.74 329.298L374.75 336.26L375.59 336.179C377.87 335.949 380.25 337.7 381.84 339.21C382.05 339.36 382.13 339.55 382.09 339.74C382.05 340.01 381.79 340.2 381.52 340.16C373.09 339.81 369.58 337.79 369.55 337.77L369.29 337.62L369.03 337.77C365.24 340.04 362.99 337.87 362.97 337.85L362.77 337.65L362.5 337.71C359.8 338.34 357.83 337.71 356.63 335.839C355.8 334.469 355.64 332.749 356.22 331.239L360.06 321.007L341.15 338.19C340.74 338.56 340.15 338.63 339.68 338.36C339.62 338.32 339.56 338.29 339.51 338.24C339.25 338.03 339.08 337.73 339.05 337.39C339.02 337.05 339.11 336.73 339.32 336.47L354.81 317.466C356.8 314.996 359.61 313.286 362.71 312.636L398.12 305.325C429.13 298.963 451.68 298.663 455.72 298.663L455.73 298.643Z" fill="#002346"/>
<path d="M358.88 323.247C359.1 323.247 359.31 323.097 359.37 322.867C360.92 316.686 369.6 317.406 369.68 317.416C369.96 317.436 370.2 317.236 370.22 316.966C370.25 316.696 370.04 316.446 369.77 316.426C369.67 316.426 360.15 315.626 358.4 322.637C358.33 322.907 358.5 323.177 358.76 323.247C358.8 323.257 358.84 323.267 358.88 323.267V323.247Z" fill="#002346"/>
<path d="M362.629 338.65C362.889 338.65 363.109 338.45 363.129 338.19L363.969 328.188C364.209 325.288 365.979 322.717 368.609 321.467L373.689 319.037C373.939 318.917 374.039 318.616 373.929 318.366C373.809 318.116 373.509 318.016 373.259 318.126L368.179 320.557C365.229 321.957 363.239 324.847 362.979 328.098L362.139 338.1C362.119 338.38 362.319 338.62 362.599 338.64C362.609 338.64 362.629 338.64 362.639 338.64L362.629 338.65Z" fill="#002346"/>
<path d="M369.3 338.679C369.57 338.679 369.79 338.469 369.8 338.199L370.12 331.578C370.2 329.558 371.14 327.688 372.7 326.427L376.7 323.137C376.91 322.957 376.94 322.647 376.77 322.437C376.59 322.227 376.28 322.197 376.07 322.367L372.07 325.657C370.28 327.098 369.21 329.248 369.12 331.548L368.8 338.169C368.79 338.449 369 338.679 369.27 338.689H369.29L369.3 338.679Z" fill="#002346"/>
</g>
<defs>
<clipPath id="clip0_240_536">
<rect width="719" height="607" fill="white" transform="matrix(-1 0 0 1 719 0)"/>
</clipPath>
</defs>
</svg>
