<svg width="802" height="682" viewBox="0 0 802 682" fill="none" xmlns="http://www.w3.org/2000/svg">
<path d="M762.069 631.16C762.069 631.16 735.939 670.82 596.069 653.81C596.069 653.81 560.279 650.63 512.119 639.66C512.119 639.66 421.879 620.54 332.439 638.94C332.439 638.94 136.599 697.38 93.0494 635.76C93.0494 635.76 77.4094 609.98 58.6794 599.38C57.1627 598.549 55.6002 597.805 53.9994 597.15C49.611 595.242 45.4067 592.936 41.4394 590.26C31.6421 583.652 24.1918 574.109 20.1594 563C18.6082 558.803 17.5478 554.441 16.9994 550C13.8294 524.22 13.8094 472.07 51.5594 419.59C63.8544 403.346 77.5502 388.212 92.4894 374.36C100.475 367.126 107.863 359.257 114.579 350.83C129.579 331.83 152.179 299.55 154.229 274.78C154.319 273.65 154.329 272.54 154.319 271.41C154.219 252.76 155.739 77.4903 247.069 92.2403C247.069 92.2403 279.209 97.2403 303.739 105.04C303.739 105.04 367.009 128.58 422.909 75.1303C422.909 75.1303 514.139 -13.6397 558.769 28.0503C558.769 28.0503 579.069 40.5103 597.059 65.5803C612.239 86.7403 620.729 111.93 622.419 137.92C624.199 165.44 633.529 226.92 680.599 254.49C680.599 254.49 754.959 276.21 733.719 391.02C733.719 391.02 718.849 459.08 764.879 505.83C764.879 505.83 782.959 531.76 787.119 562.96C790.179 585.55 785.889 610.92 762.069 631.16Z" fill="black"/>
<path opacity="0.7" d="M762.069 631.16C762.069 631.16 735.939 670.82 596.069 653.81C596.069 653.81 560.279 650.63 512.119 639.66C512.119 639.66 421.879 620.54 332.439 638.94C332.439 638.94 136.599 697.38 93.0494 635.76C93.0494 635.76 77.4094 609.98 58.6794 599.38C57.1627 598.549 55.6002 597.805 53.9994 597.15C49.611 595.242 45.4067 592.936 41.4394 590.26C31.6421 583.652 24.1918 574.109 20.1594 563C18.6082 558.803 17.5478 554.441 16.9994 550C13.8294 524.22 13.8094 472.07 51.5594 419.59C63.8544 403.346 77.5502 388.212 92.4894 374.36C100.475 367.126 107.863 359.257 114.579 350.83C129.579 331.83 152.179 299.55 154.229 274.78C154.319 273.65 154.329 272.54 154.319 271.41C154.219 252.76 155.739 77.4903 247.069 92.2403C247.069 92.2403 279.209 97.2403 303.739 105.04C303.739 105.04 367.009 128.58 422.909 75.1303C422.909 75.1303 514.139 -13.6397 558.769 28.0503C558.769 28.0503 579.069 40.5103 597.059 65.5803C612.239 86.7403 620.729 111.93 622.419 137.92C624.199 165.44 633.529 226.92 680.599 254.49C680.599 254.49 754.959 276.21 733.719 391.02C733.719 391.02 718.849 459.08 764.879 505.83C764.879 505.83 782.959 531.76 787.119 562.96C790.179 585.55 785.889 610.92 762.069 631.16Z" fill="#A3BCFF"/>
<path d="M496.05 626.84H488.86L482.35 407.94L535.28 408.47L559.42 626.84H554.28L533.05 420.27L488.17 420.95L496.05 626.84Z" fill="#D1EBFF"/>
<path d="M489.881 534.34H546.411L547.781 543.25H489.881V534.34Z" fill="#D1EBFF"/>
<path d="M486.801 449.73L537.841 449.05L538.771 458.63L486.461 458.3L486.801 449.73Z" fill="#D1EBFF"/>
<g opacity="0.2">
<path d="M496.05 626.84H488.86L482.35 407.94L535.28 408.47L559.42 626.84H554.28L533.05 420.27L488.17 420.95L496.05 626.84Z" fill="black"/>
<path d="M489.879 534.341H546.409L547.779 543.251H489.879V534.341Z" fill="black"/>
<path d="M486.799 449.731L537.839 449.051L538.769 458.631L486.459 458.301L486.799 449.731Z" fill="black"/>
</g>
<path d="M450.829 456.92H442.949V626.49H450.829V456.92Z" fill="#D1EBFF"/>
<path opacity="0.2" d="M450.829 456.92H442.949V626.49H450.829V456.92Z" fill="black"/>
<path d="M384.721 542.91L483.031 543.25L482.691 533.66L385.591 534.44L384.721 542.91Z" fill="#D1EBFF"/>
<path d="M388.831 448.36L481.321 449.05V458.64L387.801 457.95L388.831 448.36Z" fill="#D1EBFF"/>
<path d="M250.6 341.31H311.92V282.73C311.92 282.73 300.92 246.08 263.92 261.49C263.92 261.49 246.11 272.11 248.16 294.04L250.6 341.31Z" fill="#130087"/>
<path opacity="0.2" d="M250.601 341.31L295.431 262.13C295.431 262.13 278.691 248.03 256.081 268.29C256.081 268.29 245.461 281.36 247.861 308.08L250.601 341.31Z" fill="white"/>
<path d="M244.721 340.06V289.41C244.714 285.085 245.645 280.81 247.451 276.88C251.251 268.66 260.371 257.06 278.691 257.72C278.691 257.72 252.141 261.32 251.121 287.72V340.13L244.721 340.06Z" fill="#0047FF"/>
<path d="M368.27 257.55L290 258.41C290 258.41 310.89 259.41 317.74 284.79H405.1L386.41 266.1L368.27 257.55Z" fill="#D1EBFF"/>
<path d="M482.35 407.94L488.86 626.84H484.06L477.21 420.61L394.92 420.91L385.06 627.52H379.92L387.54 406.53L482.35 407.94Z" fill="#D1EBFF"/>
<path d="M385.061 627.52H390.881L400.251 420.83L394.921 420.91L385.061 627.52Z" fill="#D1EBFF"/>
<path opacity="0.2" d="M385.061 627.52H390.881L400.251 420.83L394.921 420.91L385.061 627.52Z" fill="black"/>
<path d="M406.001 452.13L419.001 439.8L420.721 415.13C420.721 415.13 504.991 418.9 509.781 403.48L407.671 371.63C407.671 371.63 396.671 368.54 395.671 368.54C394.671 368.54 375.111 377.45 376.141 379.85C377.171 382.25 406.001 452.13 406.001 452.13Z" fill="black"/>
<path d="M407.33 345.25C407.33 345.25 419.33 316.13 421.03 282.25L427.88 284.25C425.021 304.736 426.303 325.588 431.65 345.57L407.33 345.25Z" fill="black"/>
<path d="M407.67 276.74L407.33 345.25C407.33 345.25 419.33 322.64 422.23 282.05L407.67 276.74Z" fill="black"/>
<path opacity="0.4" d="M407.67 276.74L407.33 345.25C407.33 345.25 419.33 322.64 422.23 282.05L407.67 276.74Z" fill="white"/>
<path d="M406.3 227.75C406.064 228.265 405.956 228.83 405.985 229.396C406.015 229.962 406.181 230.512 406.47 231L412.98 229.63L406.3 227.75Z" fill="#0047FF"/>
<path opacity="0.2" d="M406.3 227.75C406.064 228.265 405.956 228.83 405.985 229.396C406.015 229.962 406.181 230.512 406.47 231L412.98 229.63L406.3 227.75Z" fill="black"/>
<path d="M445.859 205.65C447.207 205.231 448.58 204.897 449.969 204.65L450.149 200.36C449.462 199.531 448.578 198.885 447.579 198.48L445.859 205.65Z" fill="black"/>
<path d="M425.311 216.62C425.311 216.62 433.701 202.45 447.581 199.14L445.861 206.34C445.861 206.34 436.881 209 425.311 216.62Z" fill="black"/>
<path opacity="0.4" d="M425.311 216.62C425.311 216.62 433.701 202.45 447.581 199.14L445.861 206.34C445.861 206.34 436.881 209 425.311 216.62Z" fill="white"/>
<path d="M407.15 135.09L420.05 136.28C418.512 137.395 417.207 138.802 416.21 140.42L407.15 135.09Z" fill="#F08069"/>
<path d="M396.07 157.62C396.07 157.62 391.22 155.81 393.62 148.27L397.88 133.69C398.016 133.216 398.26 132.779 398.592 132.415C398.924 132.05 399.336 131.766 399.795 131.586C400.255 131.406 400.749 131.335 401.241 131.377C401.733 131.419 402.208 131.575 402.63 131.83C403.47 132.358 404.246 132.982 404.94 133.69L396.07 157.62Z" fill="#F08069"/>
<path d="M397.41 135.83C397.41 135.83 394.65 134.23 393.28 139.37L391.22 152C391.22 152 390.97 155.66 394.01 155.71L397.41 135.83Z" fill="#F08069"/>
<path d="M460.941 414.62C460.941 414.62 461.621 414.28 462.651 417.02L462.991 424.89L462.001 427L460.631 426.31L460.941 414.62Z" fill="#0047FF"/>
<path d="M382.32 475.76L388.48 497L408.69 488.1L403.9 465.83L382.32 475.76Z" fill="#F7C4A8"/>
<path d="M394 515.16L388.48 497L408.7 488.1C408.7 488.1 415.89 505.57 410.07 511.73C410.07 511.73 403.9 519.27 399.45 516.19C399.45 516.19 397.73 514.13 394 515.16Z" fill="black"/>
<path d="M425.14 523L361.08 549.72C361.08 549.72 357.65 543.21 362.45 541.84C367.519 539.55 372.344 536.752 376.85 533.49C377.63 532.91 378.4 532.31 379.13 531.69C382.743 528.64 385.112 524.37 385.79 519.69C386.29 516.31 387.4 512.34 389.85 513.36L390.25 502.18C390.25 502.18 405.95 506.18 393.97 515.07L400.26 510.55L412.19 501.98C412.19 501.98 420 505.57 425.14 523Z" fill="#0047FF"/>
<path opacity="0.2" d="M425.14 523L361.08 549.72C361.08 549.72 357.65 543.21 362.45 541.84C367.519 539.55 372.344 536.752 376.85 533.49C378.73 535.11 382.49 536.65 387.8 530.88L397.71 515.14L400.26 510.6L412.19 502.03C412.19 502.03 420 505.57 425.14 523Z" fill="black"/>
<path d="M401.501 393.21C401.501 393.21 407.671 411.02 397.391 425.41L383.391 397.32L401.501 393.21Z" fill="black"/>
<path opacity="0.4" d="M401.501 393.21C401.501 393.21 407.671 411.02 397.391 425.41L383.391 397.32L401.501 393.21Z" fill="white"/>
<path d="M484.57 400.57C484.57 400.57 451.52 417.19 397.73 398C397.73 398 400.82 404.51 391.91 403.83L411.91 461.57C412.316 462.743 412.382 464.006 412.101 465.215C411.819 466.423 411.202 467.527 410.32 468.4C406.14 472.5 397.15 479.14 382.09 480.11C380.769 480.192 379.454 479.874 378.316 479.198C377.178 478.522 376.27 477.519 375.71 476.32L374 472.73C373.885 472.484 373.829 472.214 373.836 471.943C373.843 471.671 373.912 471.405 374.039 471.165C374.166 470.925 374.347 470.717 374.567 470.558C374.788 470.4 375.042 470.294 375.31 470.25L377.14 469.94L343.8 399.77C341.702 395.375 340.444 390.627 340.09 385.77C339.09 372.17 340.52 346.33 364.46 340.09L452.85 335.29L484.57 400.57Z" fill="#130087"/>
<path d="M517.279 333.88L469.329 269.88L461.449 383.62C461.449 383.62 490.519 422.13 528.569 401.16L526.809 371.16L517.279 333.88Z" fill="#130087"/>
<path opacity="0.2" d="M461.449 383.62C461.449 383.62 474.319 396.19 483.199 401.26C483.199 401.26 484.989 320.83 476.299 298.1L461.449 383.62Z" fill="black"/>
<path d="M507.92 278.13L484.92 290.95L517.28 333.88L514.55 322.64C514.55 322.64 510.19 307.27 507.92 278.13Z" fill="#0047FF"/>
<path d="M457.221 202.08C457.221 202.08 454.601 230.83 471.381 227.41C471.381 227.41 495.021 222.27 494.381 180.82L481.531 172.08C481.531 172.08 487.001 201.2 457.221 202.08Z" fill="#F7C4A8"/>
<path d="M457.22 202.08C456.654 207.452 457.119 212.882 458.59 218.08C458.59 218.08 475.15 211.99 478.75 191.75C476.429 195.256 473.202 198.068 469.411 199.887C465.62 201.706 461.407 202.464 457.22 202.08Z" fill="#F08069"/>
<path d="M449.656 131.837L439.438 135.112C429.798 138.201 424.487 148.521 427.577 158.162L438.048 190.835C441.138 200.475 451.457 205.785 461.098 202.696L471.316 199.421C480.956 196.331 486.267 186.012 483.177 176.371L472.706 143.698C469.616 134.058 459.296 128.747 449.656 131.837Z" fill="#F7C4A8"/>
<path d="M470.701 302.09C469.435 301.514 468.316 300.66 467.426 299.592C466.536 298.523 465.899 297.268 465.561 295.92L472.291 292.22C472.099 295.555 471.567 298.863 470.701 302.09Z" stroke="#FF0000" stroke-miterlimit="10"/>
<path d="M472.069 294.21L464.529 298C472.069 282.93 464.189 252.44 464.189 252.44C464.189 252.44 476.869 262.69 472.069 294.21Z" stroke="#FF0000" stroke-miterlimit="10"/>
<path d="M408.399 229.16L394.999 232.54L383.359 255.84L417.609 270.57L423.439 268.51C423.439 268.51 421.879 243.34 408.399 229.16Z" fill="#F08069"/>
<path d="M389.171 256.87L428.221 177.73C428.221 177.73 432.161 170.73 428.141 166.73C428.141 166.73 420.001 158.04 418.461 155.23L411.461 152.76C413.32 150.598 414.613 148.007 415.221 145.22C415.221 145.22 415.741 142.99 416.221 140.45L404.951 133.72C404.774 133.614 404.577 133.546 404.373 133.519C404.168 133.493 403.961 133.509 403.763 133.566C403.565 133.623 403.381 133.721 403.222 133.852C403.063 133.984 402.934 134.146 402.841 134.33L394.741 150.27C394.129 151.478 393.929 152.853 394.171 154.185C394.413 155.518 395.083 156.734 396.081 157.65L413.161 171.94C413.161 171.94 391.231 203.94 361.161 227.66C357.035 230.876 353.916 235.205 352.173 240.137C350.429 245.069 350.133 250.396 351.321 255.49C351.381 255.73 351.441 255.97 351.511 256.21L389.171 256.87Z" fill="#F7C4A8"/>
<path d="M432.67 367.86L429.59 356.21L432.33 355.53C432.33 355.53 417.26 294.21 434.39 263.03L462.82 251.03C462.82 251.03 485.26 270.03 476.18 316.12L469.33 358.6L471.04 360.65L469 370.6C469 370.6 445 365.8 432.67 367.86Z" fill="#130087"/>
<path opacity="0.3" d="M432.67 367.86L429.59 356.21L432.33 355.53C432.33 355.53 417.26 294.21 434.39 263.03L462.82 251.03C462.82 251.03 485.26 270.03 476.18 316.12L469.33 358.6L471.04 360.65L469 370.6C469 370.6 445 365.8 432.67 367.86Z" fill="black"/>
<path d="M433.85 367.51L439.18 400.4C439.18 400.4 453.23 396.63 461.79 401.77L467.27 369.91C467.27 369.91 447.7 366.12 433.85 367.51Z" fill="#F7C4A8"/>
<path d="M460.77 428.83L461.77 401.77C461.77 401.77 454.77 396.46 439.16 400.4L439.51 420.61L453.21 426.44L460.77 428.83Z" fill="black"/>
<path d="M361.08 549.76L363.48 554.55L427.19 528.18L425.14 523.04L361.08 549.76Z" fill="white"/>
<path d="M348.41 341.82H336.76V627.52H348.41V341.82Z" fill="black"/>
<path d="M309 264.06C312.694 267.003 315.73 270.688 317.912 274.877C320.094 279.066 321.375 283.666 321.67 288.38V344.91H409V265.09L309 264.06Z" fill="#0047FF"/>
<path d="M321.68 344.91H314.83L314.32 288.21C314.246 285.166 313.668 282.156 312.61 279.3C310.932 274.239 308.016 269.676 304.127 266.028C300.238 262.38 295.499 259.761 290.34 258.41C290.34 258.41 318.77 257.72 321.68 288.41V344.91Z" fill="#D1EBFF"/>
<path d="M314.83 344.91H228.16V339.42H310V289.84C310 284.82 308.616 279.896 306 275.61C302.16 269.33 295.19 261.24 283.58 257.89C283.58 257.89 305.13 255.47 313.38 280.33C314.294 283.105 314.757 286.009 314.75 288.93L314.83 344.91Z" fill="#0047FF"/>
<path opacity="0.2" d="M314.83 344.91H228.16V339.42H310V289.84C310 284.82 308.616 279.896 306 275.61C302.16 269.33 295.19 261.24 283.58 257.89C283.58 257.89 305.13 255.47 313.38 280.33C314.294 283.105 314.757 286.009 314.75 288.93L314.83 344.91Z" fill="black"/>
<path d="M228.16 339.42H178.83V344.9H228.16V339.42Z" fill="#0047FF"/>
<path d="M372.899 339.08C377.158 339.08 380.609 335.628 380.609 331.37C380.609 327.112 377.158 323.66 372.899 323.66C368.641 323.66 365.189 327.112 365.189 331.37C365.189 335.628 368.641 339.08 372.899 339.08Z" fill="white"/>
<path d="M373.24 336.69C375.984 336.69 378.21 334.465 378.21 331.72C378.21 328.975 375.984 326.75 373.24 326.75C370.495 326.75 368.27 328.975 368.27 331.72C368.27 334.465 370.495 336.69 373.24 336.69Z" fill="#0047FF"/>
<path d="M419.78 333.6H372.9C372.308 333.6 371.741 333.365 371.323 332.947C370.905 332.529 370.67 331.962 370.67 331.37C370.67 331.078 370.728 330.789 370.84 330.519C370.952 330.249 371.116 330.003 371.324 329.797C371.531 329.591 371.777 329.427 372.047 329.317C372.318 329.206 372.608 329.149 372.9 329.15H445.35V348.33L433.35 338.4L421.7 348.33L421.99 335.88C421.998 335.585 421.947 335.29 421.839 335.015C421.732 334.739 421.571 334.488 421.365 334.275C421.159 334.063 420.913 333.894 420.64 333.778C420.368 333.662 420.076 333.602 419.78 333.6Z" fill="#D1EBFF"/>
<path d="M428.15 156.42C428.15 156.42 433.15 163.18 451.34 150.16C451.34 150.16 443.81 160.09 439.01 163.16C439.01 163.16 451.34 163.84 465.39 146.71C467.239 149.842 468.045 153.481 467.69 157.1C467.432 159.303 467.588 161.535 468.15 163.68C469.2 167.53 471.83 171.68 478.41 168.68L472.93 129.62L430.11 143.33L428.15 156.42Z" fill="#F08069"/>
<path d="M431.079 169.19C431.079 169.19 399.079 143.14 425.819 133.19C425.819 133.19 421.029 127.37 425.819 121.89C425.819 121.89 431.649 117.43 438.159 124.28C438.159 124.28 431.649 90.0304 475.499 118.12C475.499 118.12 476.179 112.98 480.289 110.92C480.289 110.92 476.869 116.06 478.239 120.86C478.239 120.86 492.089 124.86 487.899 151.13L486.289 149.81C486.289 149.81 489.199 133.19 480.289 128.05C482.992 134.607 484.092 141.713 483.499 148.78L474.999 167.29C474.999 167.29 470.379 169.51 469.349 160.95C469.349 160.95 469.009 147.25 465.239 145.53C465.239 145.53 450.849 159.92 441.939 161.98C441.939 161.98 452.559 153.41 457.359 144.51C457.359 144.51 433.919 160.12 428.169 156.42C428.169 156.42 427.819 158.77 429.229 163.28L431.079 169.19Z" fill="#700D00"/>
<path d="M482.349 172.25C487.27 172.25 491.259 166.958 491.259 160.43C491.259 153.902 487.27 148.61 482.349 148.61C477.429 148.61 473.439 153.902 473.439 160.43C473.439 166.958 477.429 172.25 482.349 172.25Z" fill="#F7C4A8"/>
<path d="M482.001 166.26C484.177 166.26 485.941 163.806 485.941 160.78C485.941 157.753 484.177 155.3 482.001 155.3C479.825 155.3 478.061 157.753 478.061 160.78C478.061 163.806 479.825 166.26 482.001 166.26Z" fill="#F08069"/>
<path d="M462.821 251L423.431 268.47C423.431 268.47 419.661 237 406.301 227.75L429.591 213.7C429.591 213.7 447.411 201.37 457.001 204.8C457.001 204.8 455.631 230.49 471.381 227.41C471.381 227.41 495.021 222.27 494.381 180.82C494.381 180.82 499.381 183.73 504.901 243.82L507.961 278.17L470.741 302.17C470.741 302.17 478.751 266.63 462.821 251Z" fill="#0047FF"/>
<path d="M500.869 185.15C500.869 185.15 528.589 195.89 541.609 212.33C541.609 212.33 561.139 233.91 570.389 248.33L526.539 372.33L514.539 322.66L513.849 267.16L500.869 185.15Z" fill="black"/>
<path d="M548.12 240.08C548.12 240.08 529.28 237.68 521.74 259.26C521.74 259.26 519.74 297.26 523.11 334.63C523.11 334.63 530.65 402.8 529.28 448.7C529.28 448.7 540.28 463.43 553.94 460.7C553.94 460.7 564.94 460.36 566.62 441.86C566.62 441.86 579.29 369.58 575.18 310.32L572.44 255.85C572.44 255.85 575.52 239.4 548.12 240.08Z" fill="black"/>
<path opacity="0.2" d="M548.12 240.08C548.12 240.08 529.28 237.68 521.74 259.26C521.74 259.26 519.74 297.26 523.11 334.63C523.11 334.63 530.65 402.8 529.28 448.7C529.28 448.7 540.28 463.43 553.94 460.7C553.94 460.7 564.94 460.36 566.62 441.86C566.62 441.86 579.29 369.58 575.18 310.32L572.44 255.85C572.44 255.85 575.52 239.4 548.12 240.08Z" fill="black"/>
<path d="M494.34 180.82C494.34 180.82 497.42 181.5 505.64 250.7C505.64 250.7 509.75 311.7 514.55 322.64C514.55 322.64 511.46 297.97 525.85 282.9L541.61 264.4L522.43 245.9C522.43 245.9 539.21 241.45 542.98 234.6C542.98 234.6 520.37 213.36 509.07 195.21C509.07 195.21 500.5 182.53 494.34 180.82Z" fill="black"/>
<path opacity="0.4" d="M494.34 180.82C494.34 180.82 497.42 181.5 505.64 250.7C505.64 250.7 509.75 311.7 514.55 322.64C514.55 322.64 511.46 297.97 525.85 282.9L541.61 264.4L522.43 245.9C522.43 245.9 539.21 241.45 542.98 234.6C542.98 234.6 520.37 213.36 509.07 195.21C509.07 195.21 500.5 182.53 494.34 180.82Z" fill="white"/>
<path d="M464.19 252.41L450.19 265.15C449.636 265.661 448.967 266.032 448.239 266.23C447.512 266.429 446.747 266.449 446.01 266.29L389.47 254.13C389.47 254.13 383 250.7 369 250.7L344 250C344 250 339.89 252.74 341.26 257.53H368.32C368.32 257.53 383.74 269.53 396.76 274.66L437.18 295.56C437.18 295.56 449.85 304.12 457.73 301.38L472.12 294.19C472.12 294.19 476.87 265.77 464.19 252.41Z" fill="#F7C4A8"/>
<path opacity="0.2" d="M536.811 413.42C538.705 413.42 540.241 411.884 540.241 409.99C540.241 408.095 538.705 406.56 536.811 406.56C534.917 406.56 533.381 408.095 533.381 409.99C533.381 411.884 534.917 413.42 536.811 413.42Z" fill="black"/>
<path opacity="0.2" d="M537.16 429.87C539.055 429.87 540.591 428.334 540.591 426.44C540.591 424.545 539.055 423.01 537.16 423.01C535.266 423.01 533.73 424.545 533.73 426.44C533.73 428.334 535.266 429.87 537.16 429.87Z" fill="black"/>
<path opacity="0.2" d="M535.789 445.62C537.684 445.62 539.219 444.084 539.219 442.19C539.219 440.295 537.684 438.76 535.789 438.76C533.895 438.76 532.359 440.295 532.359 442.19C532.359 444.084 533.895 445.62 535.789 445.62Z" fill="black"/>
<path d="M468.64 441.51L404.24 440.51C404.93 430.23 423.43 435.37 423.43 435.37L432.51 422.13L435.42 417.9C437.47 415.16 441.92 416.9 441.92 416.9L442.37 412.21C442.435 411.518 442.751 410.873 443.257 410.396C443.763 409.92 444.425 409.644 445.12 409.62L452.54 409.37C459.74 408.37 458.37 414.16 458.37 414.16L458.16 419.95L458 423.7C458.04 424.018 458.144 424.324 458.305 424.601C458.467 424.877 458.682 425.119 458.939 425.31C459.196 425.502 459.489 425.639 459.8 425.715C460.111 425.79 460.434 425.802 460.75 425.75C464.86 426.09 461.42 414.81 461.42 414.81C468.29 417.24 468.64 441.51 468.64 441.51Z" fill="#0047FF"/>
<path opacity="0.2" d="M468.64 441.51L404.24 440.51C404.93 430.23 423.43 435.37 423.43 435.37L432.51 422.13L433.02 421.91C433.02 421.91 425.14 434 428.22 435.37C428.22 435.37 438.84 441.88 443.64 436.06L451.52 420.3C451.52 420.3 452.3 413.46 457.9 419.96H458.16L458 423.7C458.04 424.017 458.144 424.324 458.305 424.6C458.467 424.877 458.682 425.118 458.939 425.31C459.196 425.501 459.489 425.639 459.8 425.714C460.111 425.79 460.434 425.802 460.75 425.75C464.86 426.09 461.42 414.81 461.42 414.81C468.29 417.24 468.64 441.51 468.64 441.51Z" fill="black"/>
<path d="M403.9 448.7H456.81L455.97 443.9L418.97 442.9L406.3 444.95C406.3 444.95 404.93 444.59 403.9 448.7Z" fill="#E6E6E6"/>
<path d="M403.9 448.7C403.9 448.7 402.53 443.56 404.24 440.48L468.64 441.48V448.67C462.738 449.197 456.789 448.82 451 447.55C450.238 447.37 449.467 447.23 448.69 447.13C441.37 446.12 408.46 442 403.9 448.7Z" fill="white"/>
<path d="M397.41 135.83L393.06 152C393.06 152 392.52 154.82 394.01 155.73" stroke="#ED715D" stroke-miterlimit="10"/>
<path d="M472.071 294.21L467.381 296.57C468.02 298.654 469.16 300.549 470.701 302.09C470.701 302.09 471.211 299.86 472.071 294.21Z" fill="#0047FF"/>
<path opacity="0.2" d="M472.071 294.21L467.381 296.57C468.02 298.654 469.16 300.549 470.701 302.09C470.701 302.09 471.211 299.86 472.071 294.21Z" fill="black"/>
<path d="M291.4 441.16C291.4 441.16 265.21 437.51 271.4 405.91C271.35 405.93 300.58 412.48 291.4 441.16Z" fill="#3265E7"/>
<path opacity="0.1" d="M291.4 441.16C291.4 441.16 265.21 437.51 271.4 405.91C271.35 405.93 300.58 412.48 291.4 441.16Z" fill="black"/>
<path d="M281.31 482.51C281.31 482.51 268.73 473.2 256.79 479.51C244.85 485.82 243 510.06 243 510.06C243 510.06 260.54 512.57 271.58 502.06C282.19 491.94 281.31 482.51 281.31 482.51Z" fill="#3265E7"/>
<path d="M284.129 465.4C284.129 465.4 268.759 466.4 261.609 456.23C254.459 446.06 256.059 431.61 256.059 431.61C256.059 431.61 272.179 433.61 278.619 440.86C285.059 448.11 284.129 465.4 284.129 465.4Z" fill="#3265E7"/>
<path d="M299.881 453.3C299.881 453.3 309.191 435.92 323.341 433.22C337.491 430.52 346.171 445.1 346.171 445.1C346.171 445.1 335.841 458.29 322.851 460.59C309.861 462.89 299.881 453.3 299.881 453.3Z" fill="#3265E7"/>
<path opacity="0.1" d="M346.17 445.1C346.17 445.1 335.84 458.3 322.85 460.59C312.93 462.35 304.79 457.18 301.47 454.64L300.76 453.46C300.76 453.46 307.45 447.81 320.14 444.56C332.83 441.31 346.17 445.1 346.17 445.1Z" fill="black"/>
<path d="M298.051 475.18C298.051 475.18 300.531 492.43 313.501 498.46C326.471 504.49 342.271 498.46 342.271 498.46C342.271 498.46 336.001 461.15 298.051 475.18Z" fill="#3265E7"/>
<path d="M291.379 434.79C291.379 434.79 283.449 399.98 320.839 385.89C320.839 385.84 331.209 431.66 291.379 434.79Z" fill="#3265E7"/>
<path d="M290.079 434.57C289.559 432.97 288.959 431.41 288.299 429.87C288.299 429.67 288.239 429.47 288.219 429.27C288.219 428.83 288.149 428.4 288.119 427.97C288.039 426.97 287.979 426.08 287.929 425.14C287.819 423.25 287.699 421.36 287.669 419.47C287.669 419.449 287.661 419.428 287.646 419.413C287.631 419.398 287.61 419.39 287.589 419.39C287.568 419.39 287.547 419.398 287.532 419.413C287.517 419.428 287.509 419.449 287.509 419.47V425.15C287.509 426.09 287.599 427.03 287.659 427.98V428.6C286.196 425.442 284.438 422.428 282.409 419.6C281.521 418.34 280.566 417.128 279.549 415.97C278.549 414.77 277.409 413.64 276.359 412.45C276.289 412.38 276.179 412.45 276.249 412.57C278.115 414.647 279.789 416.89 281.249 419.27C282.049 420.48 282.799 421.71 283.509 422.97L283.269 422.87L282.339 422.5L280.209 421.69C278.799 421.17 277.399 420.69 275.999 420.12C275.909 420.12 275.849 420.24 275.939 420.27C277.329 420.82 278.709 421.41 280.079 422L282.079 422.87L283.079 423.29C283.297 423.402 283.529 423.486 283.769 423.54C284.299 424.49 284.769 425.44 285.299 426.41C286.515 428.854 287.584 431.368 288.499 433.94L288.689 434.48C287.999 434.092 287.28 433.758 286.539 433.48C285.649 433.05 284.739 432.65 283.829 432.24C281.999 431.39 280.179 430.55 278.419 429.55C278.41 429.544 278.4 429.541 278.389 429.54C278.379 429.538 278.368 429.539 278.358 429.542C278.348 429.545 278.338 429.549 278.33 429.556C278.321 429.562 278.314 429.571 278.309 429.58C278.304 429.589 278.3 429.599 278.299 429.61C278.298 429.62 278.298 429.631 278.301 429.641C278.304 429.651 278.309 429.661 278.315 429.669C278.322 429.677 278.33 429.684 278.339 429.69L283.699 432.69C284.599 433.18 285.509 433.69 286.429 434.1C287.193 434.557 288.023 434.895 288.889 435.1C289.762 437.49 290.336 439.979 290.599 442.51C290.889 446.09 290.849 449.69 290.939 453.26M291.039 453.26C291.299 450.02 291.449 446.74 291.459 443.48C291.467 440.423 290.985 437.384 290.029 434.48L291.039 453.26Z" fill="black"/>
<path d="M286.05 416C285.798 417.846 285.711 419.71 285.79 421.57H285.87C285.98 419.73 285.99 417.88 286.21 416.04C286.22 415.94 286.06 415.9 286.05 416Z" fill="black"/>
<path d="M278.57 417.58C277.4 417.139 276.275 416.587 275.21 415.93C275.192 415.919 275.17 415.916 275.149 415.922C275.129 415.927 275.111 415.941 275.1 415.96C275.09 415.978 275.087 416 275.093 416.021C275.098 416.041 275.112 416.059 275.13 416.07C276.176 416.77 277.318 417.316 278.52 417.69C278.59 417.71 278.63 417.66 278.57 417.58Z" fill="black"/>
<path d="M292.231 491.3C292.231 488.41 292.161 485.52 292.121 482.62C292.071 473.02 291.991 463.42 291.821 453.82C291.681 446.206 291.504 438.59 291.291 430.97C291.288 430.949 291.28 430.929 291.268 430.911C291.256 430.894 291.239 430.879 291.221 430.87V424.62C291.19 424.583 291.148 424.558 291.101 424.55C291.041 424.55 290.961 424.55 290.961 424.63V430.89C290.943 430.898 290.928 430.91 290.917 430.926C290.907 430.942 290.901 430.961 290.901 430.98C290.511 444.54 290.171 458.11 290.091 471.66V480C290.001 488.84 289.951 497.68 289.991 506.53V510.75C289.991 518.81 290.08 526.94 290.08 535.03C290.08 535.46 290.56 535.68 291.08 535.7C291.6 535.72 292.281 535.49 292.281 534.99C292.281 526.06 292.351 517.15 292.341 508.22C292.251 502.54 292.271 496.92 292.231 491.3Z" fill="black"/>
<path d="M284.739 483.14C282.428 482.228 279.927 481.902 277.459 482.19C276.944 482.1 276.422 482.05 275.899 482.04L274.129 481.91C272.909 481.81 271.689 481.74 270.459 481.65C267.989 481.46 265.459 481.31 263.019 481.06C263.007 481.055 262.994 481.054 262.981 481.055C262.968 481.057 262.956 481.062 262.946 481.069C262.935 481.076 262.926 481.086 262.92 481.098C262.914 481.109 262.911 481.122 262.911 481.135C262.911 481.148 262.914 481.16 262.92 481.172C262.926 481.183 262.935 481.193 262.946 481.2C262.956 481.208 262.968 481.212 262.981 481.214C262.994 481.216 263.007 481.214 263.019 481.21C265.469 481.53 267.919 481.88 270.369 482.13C271.629 482.25 272.899 482.38 274.169 482.47L275.089 482.56C274.719 482.64 274.339 482.74 273.969 482.85C271.995 483.422 270.085 484.196 268.269 485.16C267.269 485.33 266.269 485.62 265.329 485.85C263.769 486.21 262.209 486.61 260.669 487.02C257.669 487.81 254.669 488.72 251.559 489.6C251.469 489.6 251.509 489.78 251.609 489.76C254.609 489.01 257.609 488.33 260.669 487.61L265.109 486.54L266.249 486.28C262.875 488.378 259.86 491.005 257.319 494.06C254.857 497.062 252.768 500.353 251.099 503.86C251.049 503.95 251.179 504.03 251.229 503.94C253.3 500.337 255.831 497.019 258.759 494.07L258.589 494.57L257.889 496.8C257.429 498.28 256.959 499.8 256.509 501.25C256.509 501.35 256.629 501.38 256.659 501.25C257.199 499.82 257.659 498.37 258.209 496.93C258.459 496.22 258.709 495.51 258.949 494.8C259.079 494.44 259.209 494.07 259.329 493.7L259.449 493.36C260.855 491.997 262.348 490.727 263.919 489.56C265.991 488.031 268.233 486.746 270.599 485.73C270.583 485.949 270.536 486.164 270.459 486.37C270.339 486.95 270.209 487.52 270.089 488.09C269.849 489.28 269.619 490.48 269.389 491.67C268.909 494.11 268.619 496.58 268.159 499.01C268.159 499.12 268.299 499.16 268.319 499.01C268.879 496.57 269.609 494.15 270.149 491.7C270.419 490.47 270.709 489.24 270.959 488.01C271.079 487.44 271.189 486.87 271.309 486.28C271.383 485.95 271.44 485.616 271.479 485.28C271.709 485.19 271.939 485.08 272.169 485C275.469 483.78 279.119 482.89 282.629 483.57C284.293 483.876 285.856 484.588 287.178 485.644C288.501 486.699 289.542 488.065 290.209 489.62C290.319 489.89 290.749 489.72 290.689 489.43C290.262 487.987 289.5 486.666 288.466 485.573C287.432 484.48 286.155 483.647 284.739 483.14Z" fill="black"/>
<path d="M265.479 493.451L264.419 498.25C264.018 499.779 263.721 501.332 263.529 502.9C263.529 502.96 263.629 502.96 263.649 502.9C264.103 501.365 264.457 499.802 264.709 498.22C265.019 496.65 265.329 495.07 265.629 493.49C265.649 493.39 265.499 493.351 265.479 493.451Z" fill="black"/>
<path d="M253.31 497.51C251.71 498.32 250.16 499.25 248.48 499.91C248.37 499.91 248.48 500.11 248.55 500.05C250.194 499.311 251.797 498.483 253.35 497.57L253.31 497.51Z" fill="black"/>
<path d="M291.36 480.57C290.82 478.92 290.17 477.3 289.54 475.68C288.91 474.06 288.31 472.59 287.63 471.07C286.243 467.97 284.697 464.942 283 462C281.92 460.13 280.75 458.32 279.55 456.53C279.529 456.258 279.489 455.987 279.43 455.72C279.36 455.24 279.3 454.72 279.22 454.29C279.07 453.29 278.9 452.29 278.74 451.37C278.38 449.25 277.94 447.14 277.61 445.01C277.61 444.91 277.44 444.92 277.45 445.01C277.76 447.11 277.97 449.21 278.26 451.32C278.4 452.32 278.54 453.38 278.7 454.41L278.88 455.53C276.524 452.102 273.98 448.807 271.26 445.66C270.9 445.23 270.52 444.82 270.14 444.41C270.14 444.29 270.04 444.17 270 444.05C269.89 443.76 269.77 443.47 269.67 443.17C269.44 442.56 269.22 441.95 268.99 441.33C268.57 440.14 268.18 438.92 267.86 437.68C267.845 437.666 267.825 437.658 267.805 437.658C267.784 437.658 267.764 437.666 267.75 437.68C267.74 437.694 267.736 437.709 267.736 437.725C267.736 437.741 267.74 437.757 267.75 437.77C268.05 439.03 268.38 440.29 268.75 441.53C268.92 442.14 269.13 442.73 269.34 443.32L269.45 443.62C267.45 441.47 265.45 439.41 263.4 437.37C263.384 437.358 263.364 437.352 263.345 437.352C263.325 437.352 263.305 437.358 263.29 437.37C263.28 437.4 263.28 437.431 263.29 437.46C267.261 441.617 270.902 446.077 274.18 450.8C273.81 450.69 273.43 450.59 273.04 450.51C271.87 450.29 270.67 450.12 269.48 449.97C266.97 449.64 264.48 449.33 261.97 448.97C261.87 448.97 261.83 449.1 261.97 449.12C264.36 449.59 266.72 450.12 269.08 450.67C270.2 450.92 271.32 451.15 272.45 451.37C273.367 451.561 274.269 451.819 275.15 452.14L275.9 453.2C277.03 454.84 278.11 456.52 279.17 458.2L277.6 457.89C276.42 457.66 275.22 457.45 274.03 457.25C271.68 456.87 269.34 456.45 266.98 455.93C266.88 455.93 266.84 456.06 266.98 456.08C269.33 456.64 271.66 457.28 274.03 457.9C275.16 458.21 276.3 458.48 277.44 458.73C278 458.85 278.57 458.98 279.15 459.09C279.37 459.16 279.599 459.201 279.83 459.21C282.083 462.857 284.186 466.587 286.14 470.4C286.993 472.067 287.823 473.734 288.63 475.4C289.44 477.16 290.15 478.94 290.9 480.7C290.92 481.12 291.48 481 291.36 480.57Z" fill="black"/>
<path d="M275.621 445.22C275.321 443.76 275.021 442.3 274.691 440.84C274.691 440.74 274.511 440.78 274.531 440.84C274.831 442.28 275.111 443.73 275.371 445.17C275.581 446.622 275.871 448.061 276.241 449.48C276.129 448.048 275.922 446.625 275.621 445.22Z" fill="black"/>
<path d="M266.65 444.8C265.93 444.45 265.18 444.15 264.44 443.87L263.27 443.41L262.68 443.18C262.45 443.109 262.228 443.011 262.02 442.89C261.91 442.8 261.84 443.01 261.95 443.03C262.181 443.091 262.403 443.182 262.61 443.3L263.19 443.55L264.32 444.05C265.056 444.4 265.814 444.701 266.59 444.95C266.68 445 266.73 444.86 266.65 444.8Z" fill="black"/>
<path d="M332.831 441C329.151 440.508 325.419 440.552 321.751 441.13L322.381 440.79L325.531 439.18C327.681 437.98 329.901 436.9 332.161 435.92C332.182 435.92 332.203 435.911 332.218 435.896C332.233 435.881 332.241 435.861 332.241 435.84C332.238 435.818 332.228 435.797 332.211 435.783C332.195 435.768 332.173 435.76 332.151 435.76C329.941 436.76 327.641 437.66 325.431 438.68C324.311 439.19 323.221 439.68 322.141 440.3C321.441 440.67 320.661 441.02 319.981 441.46C316.87 442.091 313.848 443.098 310.981 444.46L312.751 442.53C314.071 441.09 315.371 439.53 316.751 438.25C316.831 438.18 316.751 438.08 316.641 438.14C315.161 439.49 313.641 440.74 312.161 442.14C311.461 442.82 310.801 443.52 310.161 444.25C309.841 444.6 309.521 444.97 309.211 445.36C304.351 447.957 300.126 451.599 296.841 456.024C293.556 460.448 291.291 465.546 290.211 470.95C290.211 471.05 290.331 471.1 290.361 470.95C292.36 464.326 295.931 458.284 300.771 453.34C305.987 448.014 312.555 444.211 319.771 442.34C324.049 441.261 328.469 440.859 332.871 441.15C332.883 441.163 332.898 441.173 332.914 441.18C332.93 441.187 332.948 441.191 332.966 441.191C332.984 441.191 333.001 441.187 333.018 441.18C333.034 441.173 333.049 441.163 333.061 441.15C333.068 441.122 333.066 441.092 333.055 441.065C333.044 441.038 333.025 441.015 333.001 441C332.99 440.989 332.977 440.98 332.962 440.974C332.947 440.968 332.932 440.964 332.916 440.964C332.9 440.964 332.885 440.968 332.87 440.974C332.855 440.98 332.842 440.989 332.831 441Z" fill="black"/>
<path d="M324.609 434.79C323.527 435.425 322.479 436.116 321.469 436.86C320.482 437.609 319.568 438.449 318.739 439.37C318.659 439.45 318.739 439.55 318.859 439.48C319.789 438.66 320.739 437.85 321.719 437.07C322.676 436.298 323.678 435.583 324.719 434.93C324.733 434.915 324.741 434.896 324.741 434.875C324.741 434.855 324.733 434.835 324.719 434.82C324.715 434.81 324.709 434.8 324.701 434.793C324.693 434.785 324.683 434.78 324.672 434.777C324.661 434.774 324.65 434.774 324.639 434.776C324.628 434.778 324.618 434.783 324.609 434.79Z" fill="black"/>
<path d="M332.38 437.81C331.85 438.02 331.32 438.21 330.79 438.43L329.22 439.09C329.1 439.09 329.16 439.31 329.22 439.27L330.81 438.62C331.33 438.41 331.81 438.17 332.38 437.96C332.52 437.88 332.48 437.73 332.38 437.81Z" fill="black"/>
<path d="M333.3 487.24C332.11 487.11 330.93 486.9 329.74 486.68L327.99 486.35L327.09 486.17C326.738 485.857 326.404 485.523 326.09 485.17C323.635 483.006 320.98 481.081 318.16 479.42C316.621 478.522 315.032 477.714 313.4 477H313.65L317.91 477.18C320.76 477.32 323.6 477.38 326.45 477.57C326.55 477.57 326.54 477.41 326.45 477.41C323.6 477.22 320.76 476.89 317.91 476.65L313.76 476.28L311.63 476.1L311.08 476.04C310.34 475.76 309.6 475.5 308.84 475.27C305.302 474.044 301.491 473.836 297.84 474.67C294.59 475.49 291.33 477.67 290.49 481.07C290.49 481.19 290.64 481.27 290.69 481.15C291.91 478.28 295.09 476.83 297.98 476.24C299.916 475.865 301.901 475.825 303.85 476.12C303.982 477.009 304.199 477.883 304.5 478.73L305.58 482.37C306.32 484.79 307.13 487.19 307.85 489.62C307.865 489.634 307.885 489.642 307.905 489.642C307.926 489.642 307.945 489.634 307.96 489.62C307.966 489.608 307.97 489.594 307.97 489.58C307.97 489.566 307.966 489.552 307.96 489.54C307.35 487.12 306.85 484.68 306.27 482.25C305.98 481.06 305.68 479.87 305.39 478.69C305.22 477.862 305.002 477.044 304.74 476.24C305.866 476.462 306.978 476.749 308.07 477.1C310.069 477.699 312.03 478.42 313.94 479.26C314.13 480.49 314.41 481.71 314.69 482.92C315.04 484.44 315.44 485.92 315.93 487.44C315.933 487.449 315.937 487.458 315.943 487.466C315.948 487.474 315.956 487.48 315.964 487.485C315.973 487.489 315.982 487.492 315.992 487.493C316.001 487.494 316.011 487.493 316.02 487.49C316.039 487.481 316.054 487.467 316.063 487.449C316.072 487.431 316.074 487.41 316.07 487.39L316.01 487.12C315.72 485.71 315.4 484.31 315.11 482.9C314.87 481.76 314.65 480.62 314.4 479.48C316.01 480.21 317.6 481 319.13 481.88C319.157 482.217 319.21 482.551 319.29 482.88C319.39 483.47 319.49 484.06 319.6 484.65C319.85 485.98 320.12 487.31 320.43 488.65C321.022 491.194 321.77 493.699 322.67 496.15C322.664 496.156 322.659 496.163 322.655 496.17C322.652 496.178 322.65 496.186 322.65 496.195C322.65 496.203 322.652 496.212 322.655 496.22C322.659 496.227 322.664 496.234 322.67 496.24L322.74 496.33C322.755 496.344 322.775 496.352 322.795 496.352C322.816 496.352 322.835 496.344 322.85 496.33C322.86 496.304 322.86 496.276 322.85 496.25C322.25 493.7 321.57 491.17 321 488.6C320.72 487.32 320.44 486.04 320.18 484.75L319.82 482.83C319.806 482.631 319.772 482.433 319.72 482.24C321.451 483.269 323.12 484.398 324.72 485.62C327.522 487.711 330.111 490.072 332.45 492.67C332.47 492.695 332.499 492.711 332.531 492.715C332.563 492.719 332.595 492.71 332.62 492.69C332.645 492.67 332.662 492.641 332.665 492.609C332.669 492.577 332.66 492.545 332.64 492.52C331.64 491.22 330.64 489.95 329.56 488.74C328.9 488.04 328.23 487.37 327.56 486.74H327.77C328.39 486.85 328.99 486.94 329.61 487.02C330.81 487.18 332 487.3 333.21 487.44C333.38 487.41 333.41 487.25 333.3 487.24Z" fill="black"/>
<path d="M324.24 493.09C324.228 492.938 324.201 492.787 324.16 492.64C324.099 492.453 324.049 492.263 324.01 492.07C323.74 490.92 323.51 489.76 323.31 488.59C323.31 488.51 323.17 488.59 323.17 488.59C323.245 490.136 323.584 491.658 324.17 493.09C324.17 493.14 324.27 493.09 324.26 493.09H324.24Z" fill="black"/>
<path d="M313.351 492.81C313.351 492.792 313.344 492.774 313.33 492.761C313.317 492.748 313.299 492.74 313.281 492.74C312.911 491.21 312.561 489.74 312.281 488.15C312.111 487.34 311.941 486.53 311.791 485.72L311.541 484.41C311.508 484.025 311.414 483.646 311.261 483.29C311.246 483.276 311.226 483.269 311.206 483.269C311.185 483.269 311.166 483.276 311.151 483.29C311.142 484.075 311.25 484.857 311.471 485.61C311.631 486.44 311.801 487.29 311.981 488.12C312.361 489.83 312.781 491.52 313.271 493.12C313.271 493.21 313.451 493.19 313.441 493.12L313.351 492.81Z" fill="black"/>
<path d="M332.13 482.27C329.77 481.95 327.4 481.61 325.02 481.32C324.92 481.32 324.88 481.46 325.02 481.48C327.38 481.82 329.76 482.12 332.12 482.43C332.131 482.431 332.141 482.43 332.151 482.426C332.161 482.423 332.17 482.417 332.178 482.41C332.186 482.403 332.193 482.395 332.197 482.386C332.202 482.376 332.205 482.366 332.205 482.355C332.206 482.345 332.205 482.334 332.201 482.324C332.198 482.314 332.192 482.305 332.185 482.297C332.178 482.289 332.17 482.283 332.161 482.278C332.151 482.274 332.141 482.271 332.13 482.27Z" fill="black"/>
<path d="M299.459 415L299.859 414.76C300.559 414.38 301.259 413.97 301.959 413.58L306.309 411.15C309.159 409.55 311.979 407.9 314.849 406.33C314.939 406.33 314.849 406.15 314.769 406.2C311.889 407.76 308.959 409.2 306.059 410.76L301.769 413L300.019 413.92C301.269 411.56 302.609 409.24 304.019 407C305.98 404.026 308.093 401.156 310.349 398.4C310.373 398.376 310.386 398.344 310.386 398.31C310.386 398.276 310.373 398.244 310.349 398.22C310.327 398.206 310.301 398.198 310.274 398.198C310.248 398.198 310.222 398.206 310.199 398.22C306.918 401.413 304.016 404.973 301.549 408.83V408.46C301.549 407.6 301.619 406.73 301.629 405.87C301.629 404.16 301.569 402.46 301.629 400.77C301.634 400.758 301.635 400.745 301.634 400.732C301.632 400.719 301.627 400.707 301.62 400.697C301.613 400.686 301.603 400.677 301.591 400.671C301.58 400.665 301.567 400.662 301.554 400.662C301.542 400.662 301.529 400.665 301.517 400.671C301.506 400.677 301.496 400.686 301.489 400.697C301.481 400.707 301.477 400.719 301.475 400.732C301.473 400.745 301.475 400.758 301.479 400.77C301.409 402.44 301.209 404.11 301.109 405.77C301.109 406.61 301.029 407.44 301.009 408.27C300.979 408.756 300.979 409.244 301.009 409.73C300.229 410.96 299.499 412.2 298.789 413.46C297.544 415.745 296.428 418.099 295.449 420.51C295.449 419.65 295.359 418.78 295.309 417.91C295.199 416.01 294.959 414.12 294.879 412.2C294.879 412.179 294.871 412.158 294.856 412.143C294.841 412.128 294.821 412.12 294.799 412.12C294.778 412.12 294.758 412.128 294.743 412.143C294.728 412.158 294.719 412.179 294.719 412.2V418C294.719 418.95 294.779 419.91 294.849 420.85L294.909 421.92C293.722 425.028 292.779 428.225 292.089 431.48C291.423 434.96 290.956 438.467 290.689 442C291.089 438.822 291.759 435.684 292.689 432.62C293.149 430.98 293.643 429.347 294.169 427.72C295.719 426.99 297.169 426.07 298.719 425.25C300.269 424.43 301.839 423.53 303.419 422.68C306.529 420.97 309.639 419.22 312.859 417.68C312.949 417.68 312.859 417.5 312.779 417.54C309.519 419.02 306.239 420.43 303.029 422.03C301.439 422.84 299.869 423.7 298.319 424.57C297.019 425.3 295.679 426.03 294.439 426.87C294.799 425.79 295.189 424.71 295.599 423.64C296.738 420.696 298.026 417.812 299.459 415Z" fill="black"/>
<path d="M296.299 407C296.299 406.9 296.129 406.9 296.139 407C296.269 409 296.339 411 296.559 413C296.559 413.11 296.739 413.11 296.729 413C296.659 411 296.439 409 296.299 407Z" fill="black"/>
<path d="M314.23 413.68C311.89 414.63 309.53 415.53 307.18 416.49C307.11 416.49 307.18 416.63 307.18 416.6C309.55 415.72 311.88 414.75 314.23 413.83C314.38 413.8 314.32 413.63 314.23 413.68Z" fill="black"/>
<path d="M317.789 397.63C315.497 398.681 313.273 399.873 311.129 401.2C311.029 401.26 311.129 401.43 311.239 401.36C313.409 400.1 315.609 398.88 317.869 397.77C317.888 397.759 317.901 397.742 317.907 397.721C317.912 397.7 317.91 397.678 317.899 397.66C317.888 397.641 317.871 397.628 317.85 397.622C317.83 397.616 317.808 397.619 317.789 397.63Z" fill="black"/>
<path d="M317.219 510.01H263.279V566.86H317.219V510.01Z" fill="#0047FF"/>
<path d="M262.33 530.13H259.57V627.52H262.33V530.13Z" fill="#D1EBFF"/>
<path d="M320.641 530.13H317.881V627.52H320.641V530.13Z" fill="#D1EBFF"/>
<path d="M292.959 530.13H290.199V627.52H292.959V530.13Z" fill="#D1EBFF"/>
<path d="M319.269 563.22H260.949V571.1H319.269V563.22Z" fill="#D1EBFF"/>
</svg>
